<?xml version="1.0" encoding="UTF-8"?><svg id="svg2" xmlns="http://www.w3.org/2000/svg" viewBox="0 0 3291.88 2427.09"><defs><style>.cls-1{fill:none;stroke:#f3e7b0;stroke-miterlimit:13.33;stroke-width:1.33px;}.cls-2{fill:#fff;}</style></defs><g id="g10"><path id="path12" class="cls-2" d="M0,2427.09h3291.88V0H0v2427.09Z"/><g id="g14"><path id="path16" class="cls-1" d="M2316.4,356.91l-41.17.04-38.56,115.33c-.43,1.31-1.65,2.19-3.01,2.19-1.76,0-3.19-1.43-3.19-3.19l-.03-114.37h-39.15v274.31s39.13,0,39.13,0v-114.37c.01-1.76,1.44-3.19,3.2-3.19,1.37,0,2.59.88,3.01,2.17l38.56,115.35,41.17.04-44.99-137.15,45.01-137.16ZM2216.96,471.28c0,9.2,7.49,16.69,16.69,16.69,7.19,0,13.55-4.59,15.83-11.4l35.47-106.13h12.8s-39.19,119.41-39.19,119.41l-1.39,4.21,1.39,4.21,39.16,119.41h-12.79s-35.48-106.13-35.48-106.13c-2.27-6.83-8.64-11.41-15.83-11.41-9.2,0-16.69,7.49-16.69,16.69v100.87h-12.15v-247.29h12.15l.03,100.87Z"/></g><g id="g18"><path id="path20" class="cls-1" d="M1407.5,356.83v274.43h39.19v-97.99c0-10.84,8.77-19.61,19.61-19.61l58.75-.03v-39.16l-58.75-.03c-10.84,0-19.61-8.77-19.61-19.61v-39.19c0-10.83,8.77-19.6,19.61-19.6l39.17-.03h19.57v-39.16l-117.55-.03ZM1511.54,370.36v12.13h-6.08l-39.16.03c-18.27,0-33.13,14.87-33.13,33.12v39.19c0,18.27,14.87,33.13,33.12,33.13h45.25v12.16h-45.24c-18.27.01-33.13,14.88-33.13,33.15v84.47h-12.16v-247.39h90.53Z"/></g><g id="E"><path id="path24" class="cls-1" d="M1250.78,356.78v274.43h117.55v-39.16l-58.75-.03c-10.84,0-19.61-8.79-19.61-19.61v-39.19c0-10.84,8.77-19.61,19.61-19.61l58.75-.03v-39.16l-58.75-.03c-10.84,0-19.61-8.77-19.61-19.61v-39.19c0-10.83,8.77-19.6,19.61-19.6l39.17-.03h19.57v-39.16l-117.55-.03ZM1354.82,370.32v12.13h-6.08l-39.16.03c-18.27,0-33.13,14.87-33.13,33.12v39.19c0,18.27,14.87,33.13,33.12,33.13h45.25v12.16l-45.24.03c-18.27,0-33.13,14.85-33.13,33.12v39.19c0,18.27,14.87,33.12,33.12,33.12h45.24s.01,12.16.01,12.16h-90.53v-247.39h90.53Z"/></g><g id="g26"><path id="path28" class="cls-1" d="M1054.72,1258.26v-274.32h-117.51v39.15l58.73.03c10.83,0,19.6,8.77,19.6,19.6v39.17c0,10.83-8.77,19.61-19.6,19.61h-58.73v39.16l58.73.03c10.83,0,19.6,8.77,19.6,19.6v39.17c0,10.83-8.77,19.61-19.6,19.61h-39.16s-19.57.01-19.57.01v39.15l117.51.03ZM950.72,1244.72v-12.13h45.23c18.25-.01,33.11-14.87,33.11-33.13v-39.17c0-18.25-14.85-33.11-33.11-33.11h-45.23v-12.16h45.23c18.25-.01,33.11-14.87,33.11-33.13v-39.17c0-18.25-14.85-33.11-33.11-33.11l-45.23-.03v-12.13h90.49v247.31l-90.49-.03Z"/></g><g id="g30"><path id="path32" class="cls-1" d="M937.35,356.79v274.43h117.55v-39.16l-58.75-.03c-10.84,0-19.61-8.79-19.61-19.61v-156.81c0-10.83,8.77-19.6,19.61-19.6l39.17-.03h19.57v-39.16l-117.55-.03ZM1041.39,370.32v12.13h-6.08l-39.16.03c-18.27,0-33.13,14.87-33.13,33.12v156.81c0,18.27,14.87,33.12,33.12,33.12h45.24s.01,12.16.01,12.16h-90.53v-247.39h90.53Z"/></g><g id="A"><path id="path36" class="cls-1" d="M682.57,474.45c-10.83,0-19.6-8.77-19.6-19.6v-39.19c0-10.83,8.77-19.61,19.6-19.61s19.6,8.79,19.6,19.61v39.19c0,10.83-8.77,19.6-19.6,19.6ZM741.37,356.85h-117.57l-.03,274.37h39.2v-97.97c0-10.81,8.77-19.6,19.6-19.6s19.6,8.79,19.6,19.6v97.97h39.2v-274.37ZM682.57,487.96c18.25,0,33.12-14.85,33.12-33.11v-39.19c0-18.27-14.85-33.12-33.12-33.12s-33.12,14.85-33.12,33.12v39.19c0,18.25,14.87,33.11,33.12,33.11M727.8,617.72h-12.11v-84.47c0-18.25-14.85-33.11-33.12-33.11s-33.12,14.85-33.12,33.11v84.47h-12.16v-247.35h90.56l-.05,247.35Z"/></g><g id="P"><path id="path40" class="cls-1" d="M996,787.99c-10.83,0-19.6-8.77-19.6-19.6v-39.17c0-10.83,8.77-19.6,19.6-19.6s19.6,8.77,19.6,19.6v39.17c0,10.83-8.77,19.6-19.6,19.6ZM1054.79,670.42h-117.55l-.03,274.32h39.19v-97.95c0-10.83,8.77-19.6,19.6-19.6h58.79v-156.77ZM996,801.5c18.25,0,33.11-14.85,33.11-33.11v-39.17c0-18.27-14.85-33.12-33.11-33.12s-33.11,14.85-33.11,33.12v39.17c0,18.25,14.85,33.11,33.11,33.11M1041.23,813.67h-45.23c-18.25,0-33.11,14.85-33.11,33.12v84.44h-12.17l.03-247.31h90.53l-.05,129.75Z"/></g><g id="g42"><path id="path44" class="cls-1" d="M1309.65,787.99c-10.83,0-19.6-8.77-19.6-19.6h0v-39.16h0c0-10.83,8.77-19.6,19.6-19.6s19.6,8.77,19.6,19.59v39.17c0,10.83-8.77,19.6-19.6,19.6ZM1250.9,670.42v274.32h39.13l.03-114.37c0-1.76,1.43-3.19,3.19-3.19,1.37,0,2.59.88,3.01,2.19l38.56,115.33,41.17.04-35.39-106.16c-1.87-5.6-.87-11.39,5.04-11.39l22.75-.03.03-156.71-117.52-.04ZM1276.54,729.97v37.71h0v.72c0,18.25,14.85,33.11,33.11,33.11s33.11-14.85,33.11-33.12v-39.16c0-18.25-14.85-33.09-33.11-33.09s-33.11,14.84-33.11,33.09v.75M1354.91,683.97l-.03,129.71h-9.24c-6.4.01-12.09,2.83-15.64,7.75-4.07,5.64-4.87,13.45-2.21,21.44l29.45,88.35h-12.71l-35.47-106.12c-2.27-6.83-8.64-11.41-15.83-11.41-9.2,0-16.69,7.49-16.69,16.69v100.87h-12.15v-247.31l90.51.04Z"/></g><g id="L"><path id="path48" class="cls-1" d="M2348.02,631.46l117.55-.03v-39.16l-58.75-.03c-10.84,0-19.61-8.77-19.61-19.6v-215.61h-39.19v274.43ZM2361.53,617.94v-247.39h12.16v202.09c0,18.25,14.87,33.12,33.13,33.12l39.16.03h6.08v12.13h-90.53Z"/></g><g id="g50"><path id="path52" class="cls-1" d="M1407.62,670.42v156.72l58.96.04c10.72.12,19.37,8.84,19.37,19.59v39.17c0,10.83-8.77,19.61-19.6,19.61h-58.73v39.16l117.51.03v-156.72l-58.96-.04c-10.72-.12-19.37-8.84-19.37-19.59v-39.17c0-10.83,8.77-19.61,19.6-19.61h58.73v-39.16l-117.51-.03ZM1511.62,683.95v12.13h-45.23c-18.25.01-33.11,14.87-33.11,33.13v39.17c0,18.04,14.68,32.89,32.87,33.09l45.47.03v129.72l-90.49-.03v-12.13h45.23c18.25-.01,33.11-14.87,33.11-33.13v-39.17c0-18.04-14.68-32.89-32.87-33.09l-45.47-.03v-129.72l90.49.03Z"/></g><g id="g54"><path id="path56" class="cls-1" d="M898.13,983.94l-117.51.03v39.15h58.73c10.83.01,19.6,8.8,19.6,19.63v39.17c0,10.75-8.65,19.47-19.37,19.59l-58.96.04v156.72l117.51-.03v-39.15h-58.73c-10.83-.01-19.6-8.8-19.6-19.63v-39.17c0-10.75,8.65-19.47,19.37-19.59l58.96-.04v-156.72ZM884.63,997.45v129.72l-45.47.03c-18.19.2-32.87,15.05-32.87,33.09v39.17c0,18.27,14.85,33.12,33.11,33.12h45.23v12.15l-90.49.03v-129.72l45.47-.03c18.19-.2,32.87-15.05,32.87-33.09v-39.17c0-18.27-14.85-33.12-33.11-33.12h-45.23v-12.15l90.49-.03Z"/></g><g id="g58"><path id="path60" class="cls-1" d="M1368.4,1258.26v-156.72l-58.96-.04c-10.72-.12-19.37-8.84-19.37-19.59v-39.17c0-10.83,8.77-19.61,19.6-19.61h58.73v-39.16l-117.51-.03v156.72l58.96.04c10.72.12,19.37,8.84,19.37,19.59v39.17c0,10.83-8.77,19.61-19.6,19.61h-58.73v39.16l117.51.03ZM1264.4,1244.72v-12.13h45.23c18.25-.01,33.11-14.87,33.11-33.13v-39.17c0-18.04-14.68-32.89-32.87-33.09l-45.47-.03v-129.72l90.49.03v12.13h-45.23c-18.25.01-33.11,14.87-33.11,33.13v39.17c0,18.04,14.68,32.89,32.87,33.09l45.47.03v129.72l-90.49-.03Z"/></g><g id="g62"><path id="path64" class="cls-1" d="M2765.6,617.94h-12.15s-.03-202.16-.03-202.16c0-18.24-14.84-33.08-33.08-33.08l-39.21.03c-10.8,0-20.57,5.39-26.67,13.48-4.01,5.35-6.44,11.85-6.44,18.81v202.93h-12.16l-.03-202.93c0-6.96-2.43-13.47-6.44-18.81-6.08-8.09-15.85-13.48-26.65-13.48l-39.2-.03c-18.24,0-33.08,14.84-33.08,33.08v202.17h-12.16v-247.41s247.29.01,247.29.01v247.39ZM2504.79,357.04v274.43h39.16l.03-215.68c0-10.81,8.76-19.57,19.57-19.57l39.19.04c10.37,0,19.6,8.41,19.6,18.77l.03,216.45h39.19v-216.45c0-10.36,9.21-18.77,19.59-18.77l39.21-.04c10.8,0,19.57,8.76,19.57,19.57l.04,215.65,39.15.03v-274.43h-274.32Z"/></g><g id="g66"><path id="path68" class="cls-1" d="M2048.19,684.03h12.16s.03,202.35.03,202.35c0,18.27,14.85,33.12,33.12,33.12l39.24-.03c10.81,0,20.6-5.39,26.69-13.49,4.01-5.35,6.44-11.87,6.44-18.84v-203.12h12.17l.03,203.12c0,6.97,2.43,13.49,6.45,18.84,6.08,8.11,15.87,13.49,26.68,13.49l39.23.03c18.27,0,33.12-14.85,33.12-33.11v-202.37h12.17v247.65s-247.53,0-247.53,0v-247.64ZM2309.26,945.19v-274.69h-39.2l-.03,215.88c0,10.83-8.77,19.6-19.6,19.6l-39.21-.04c-10.39,0-19.61-8.41-19.61-18.8l-.03-216.65h-39.23v216.65c0,10.39-9.24,18.8-19.61,18.8l-39.24.04c-10.83,0-19.6-8.77-19.6-19.6l-.04-215.85-39.19-.03v274.69h274.59Z"/></g><g id="g70"><path id="path72" class="cls-1" d="M1975.84,605.54h6.08v12.16h-90.53v-12.16h6.09c17.95,0,33.09-14.79,33.09-32.28l-.03-158.4c0-17.49-15.15-32.28-33.08-32.28h-6.08v-12.16h90.53v12.16h-6.09c-17.95,0-33.09,14.79-33.09,32.28v158.4c.01,17.49,15.17,32.28,33.11,32.28ZM1975.82,396.08h19.6v-39.17h-117.55v39.16h19.57c10.37.01,19.59,8.41,19.59,18.79l.03,158.4c0,10.37-9.21,18.77-19.59,18.77h-19.6v39.17h117.55v-39.16h-19.57c-10.37-.01-19.6-8.41-19.6-18.79v-158.4c-.01-10.37,9.2-18.77,19.57-18.77h0Z"/></g><g id="g74"><path id="path76" class="cls-1" d="M721.73,1232.52h6.08v12.16h-90.53v-12.16h6.09c17.95,0,33.09-14.79,33.09-32.28l-.03-158.4c0-17.49-15.15-32.28-33.08-32.28h-6.08v-12.16h51.35v202.84c.01,17.49,15.17,32.28,33.11,32.28ZM623.77,983.89v39.16h19.57c10.37.01,19.59,8.41,19.59,18.79l.03,158.4c0,10.37-9.21,18.77-19.59,18.77h-19.6v39.17h117.55v-39.16h-19.57c-10.37-.01-19.6-8.41-19.6-18.79v-216.35h-78.37Z"/></g><g id="g78"><path id="path80" class="cls-1" d="M1681.87,670.42h-117.6v39.19h19.59c10.37.01,19.6,8.41,19.6,18.79l.03,216.45h39.19v-216.45c0-10.37,9.21-18.77,19.6-18.77h19.6v-39.2ZM1668.36,696.1h-6.09c-17.96,0-33.12,14.79-33.12,32.29v202.93h-12.16v-202.93c-.01-17.51-15.19-32.29-33.12-32.29h-6.08v-12.17h90.57v12.17Z"/></g><g id="g82"><path id="path84" class="cls-1" d="M623.78,944.74h39.15l.03-215.53c0-10.81,8.77-19.6,19.6-19.6s19.59,8.79,19.59,19.6l.03,215.53h39.15v-274.32h-117.53v274.32ZM637.28,683.94h90.52v247.29h-12.13l-.03-202.03c0-18.25-14.84-33.11-33.09-33.11s-33.11,14.85-33.11,33.11l-.03,202.03h-12.13v-247.29Z"/></g><g id="g86"><path id="path88" class="cls-1" d="M839.29,905.5c-10.83,0-19.61-8.79-19.61-19.61v-156.63c0-10.83,8.79-19.61,19.61-19.61s19.61,8.79,19.61,19.61v156.63c0,10.83-8.77,19.61-19.61,19.61ZM872.42,729.26c0-18.27-14.87-33.13-33.13-33.13s-33.13,14.87-33.13,33.13v156.63c0,18.27,14.87,33.13,33.13,33.13s33.13-14.87,33.13-33.13v-156.63Z"/></g><g id="g90"><path id="path92" class="cls-1" d="M884.6,931.2h-90.61v-247.27h90.61v247.27ZM780.47,944.73h117.65v-274.32h-117.65v274.32Z"/></g><g id="g94"><path id="path96" class="cls-1" d="M2093.5,1219.08c-10.84,0-19.61-8.79-19.61-19.61v-156.63c0-10.83,8.77-19.61,19.61-19.61s19.61,8.79,19.61,19.61v156.63c0,10.83-8.79,19.61-19.61,19.61ZM2126.63,1042.84c0-18.27-14.87-33.13-33.13-33.13s-33.13,14.87-33.13,33.13v156.63c0,18.27,14.87,33.13,33.13,33.13s33.13-14.87,33.13-33.13v-156.63Z"/></g><g id="g98"><path id="path100" class="cls-1" d="M2138.81,1244.79h-90.63v-247.27h90.63v247.27ZM2034.67,1258.31h117.67v-274.32h-117.67v274.32Z"/></g><g id="g102"><path id="path104" class="cls-1" d="M1877.75,944.79h39.17l85.85-274.31h-39.16l-29.51,94.15c-1.13,3.56-4.43,6.16-8.36,6.16-4.87,0-8.81-3.95-8.81-8.81v-91.49h-39.19v274.31ZM1891.17,931.37v-247.45h12.32v78.07c.01,12.25,9.99,22.23,22.25,22.23,9.69,0,18.2-6.23,21.16-15.56l26.57-84.73h11.03l-77.45,247.45h-15.88"/></g><g id="g106"><path id="path108" class="cls-1" d="M839.38,592.02c-10.83,0-19.6-8.77-19.6-19.6v-39.19c0-10.83,8.77-19.61,19.6-19.61s19.6,8.79,19.6,19.61v39.19c0,10.83-8.77,19.6-19.6,19.6ZM839.38,474.42c-10.83,0-19.6-8.77-19.6-19.6v-39.19c0-10.83,8.77-19.6,19.6-19.6s19.6,8.77,19.6,19.6v39.19c0,10.83-8.77,19.6-19.6,19.6ZM898.18,356.82h-117.57l-.03,274.39h117.53l.07-274.39ZM839.38,605.53c18.25,0,33.12-14.85,33.12-33.12v-39.17c0-18.27-14.87-33.12-33.12-33.12-8.84,0-17.16,3.44-23.41,9.69-6.25,6.25-9.71,14.57-9.71,23.44v39.17c0,8.84,3.45,17.16,9.71,23.41,6.25,6.25,14.57,9.69,23.41,9.69M839.38,487.93c18.25,0,33.12-14.85,33.12-33.12v-39.17c0-18.27-14.87-33.12-33.12-33.12-8.84,0-17.16,3.44-23.41,9.71-6.25,6.25-9.71,14.56-9.71,23.43v39.17c0,8.84,3.45,17.16,9.71,23.41,6.25,6.25,14.57,9.69,23.41,9.69M884.6,617.69h-90.51v-247.35h90.56l-.05,247.35Z"/></g><g id="g110"><path id="path112" class="cls-1" d="M1779.76,1219.12c-10.83,0-19.6-8.77-19.6-19.6v-39.17c0-10.83,8.77-19.6,19.6-19.6s19.6,8.77,19.6,19.6v39.17c0,10.83-8.77,19.6-19.6,19.6ZM1779.76,1101.56c-10.83,0-19.6-8.77-19.6-19.6v-39.17c0-10.83,8.77-19.6,19.6-19.6s19.6,8.77,19.6,19.6v39.17c0,10.83-8.77,19.6-19.6,19.6ZM1838.54,984h-117.53v274.29s117.48,0,117.48,0l.05-274.29ZM1779.76,1232.62c18.25,0,33.11-14.85,33.11-33.12v-39.16c0-18.25-14.85-33.11-33.11-33.11-8.84,0-17.16,3.44-23.41,9.69-6.25,6.25-9.69,14.57-9.69,23.43v39.16c0,8.84,3.44,17.16,9.69,23.41,6.25,6.25,14.57,9.69,23.41,9.69M1779.76,1115.06c18.25,0,33.11-14.85,33.11-33.12v-39.16c0-18.25-14.85-33.11-33.11-33.11-8.84,0-17.16,3.44-23.41,9.69-6.25,6.25-9.69,14.57-9.69,23.43v39.16c0,8.84,3.44,17.16,9.69,23.41,6.25,6.25,14.57,9.69,23.41,9.69M1824.98,1244.78h-90.48v-247.28h90.53l-.05,247.28Z"/></g><g id="g114"><path id="path116" class="cls-1" d="M1466.37,1219.19c-10.83,0-19.6-8.77-19.6-19.6v-39.19c0-10.83,8.77-19.61,19.6-19.61s19.6,8.79,19.6,19.61v39.19c0,10.83-8.77,19.6-19.6,19.6ZM1525.17,983.99h-117.57l-.03,274.39h117.53l.04-156.79h-58.77c-10.83,0-19.6-8.77-19.6-19.6v-39.19c0-10.83,8.77-19.6,19.6-19.6h58.8v-39.21ZM1466.37,1232.69c18.25,0,33.12-14.85,33.12-33.12v-39.17c0-18.27-14.87-33.12-33.12-33.12-8.84,0-17.16,3.44-23.41,9.69-6.25,6.25-9.71,14.57-9.71,23.44v39.17c0,8.84,3.45,17.16,9.71,23.41,6.25,6.25,14.57,9.69,23.41,9.69M1511.63,1009.39s-27,.29-45.25.29c-8.84,0-17.16,3.44-23.41,9.71-6.25,6.25-9.71,14.56-9.71,23.43v39.17c0,8.84,3.45,17.16,9.71,23.41,6.25,6.25,14.57,9.69,23.41,9.69h45.27l-.04,129.76h-90.51v-247.35h90.53v11.88Z"/></g><g id="g118"><path id="path120" class="cls-1" d="M1936.55,1023.17c10.83,0,19.6,8.77,19.6,19.6v39.19c0,10.83-8.77,19.61-19.6,19.61s-19.6-8.79-19.6-19.61v-39.19c0-10.83,8.77-19.6,19.6-19.6ZM1877.75,1258.37h117.57l.03-274.39h-117.53l-.04,156.79h58.77c10.83,0,19.6,8.77,19.6,19.6v39.19c0,10.83-8.77,19.6-19.6,19.6h-58.8v39.21ZM1936.55,1009.67c-18.25,0-33.12,14.85-33.12,33.12v39.17c0,18.27,14.87,33.12,33.12,33.12,8.84,0,17.16-3.44,23.41-9.69,6.25-6.25,9.71-14.57,9.71-23.44v-39.17c0-8.84-3.45-17.16-9.71-23.41-6.25-6.25-14.57-9.69-23.41-9.69M1891.29,1232.97s27-.29,45.25-.29c8.84,0,17.16-3.44,23.41-9.71,6.25-6.25,9.71-14.56,9.71-23.43v-39.17c0-8.84-3.45-17.16-9.71-23.41-6.25-6.25-14.57-9.69-23.41-9.69h-45.27l.04-129.76h90.51v247.35h-90.53v-11.88Z"/></g><g id="g122"><path id="path124" class="cls-1" d="M1838.53,670.42h-39.15l-.03,215.53c0,10.81-8.77,19.6-19.6,19.6s-19.59-8.79-19.59-19.6l-.03-215.53h-39.15v274.32h117.53v-274.32ZM1825.02,931.22h-90.52v-247.29h12.13l.03,202.03c0,18.25,14.84,33.11,33.09,33.11s33.11-14.85,33.11-33.11l.03-202.03h12.13v247.29Z"/></g><g id="g126"><path id="path128" class="cls-1" d="M1623.12,605.54c18.25,0,33.09-14.84,33.09-33.09v-58.56h12.15v103.81h-90.48v-246.89h90.48v12.16h-45.24c-18.25,0-33.09,14.85-33.09,33.09v156.39c0,18.25,14.84,33.09,33.09,33.09ZM1623.12,396.47h58.75v-39.17h-117.49v273.91h117.49v-130.83h-39.16v72.07c0,10.83-8.77,19.59-19.59,19.59s-19.59-8.76-19.59-19.59v-156.39c0-10.81,8.77-19.59,19.59-19.59Z"/></g><g id="g130"><path id="path132" class="cls-1" d="M1623.07,1009.9c-18.25,0-33.09,14.84-33.09,33.09v58.6h-12.15v-103.85h90.48v246.89h-12.15v-201.64c0-18.25-14.84-33.09-33.09-33.09ZM1681.82,1258.14v-273.91h-117.49v130.83h39.16v-72.07c0-10.83,8.77-19.59,19.59-19.59s19.59,8.76,19.59,19.59v215.15h39.16Z"/></g><g id="g134"><path id="path136" class="cls-1" d="M1190.12,931.16l-38.57-110.07h12.16l38.57,110.07h-12.16ZM1172.48,729.27v78.32h-38.93l32.53,92.77c-3.49,3.19-8.12,5.15-13.21,5.15-10.84,0-19.61-8.79-19.61-19.61v-156.63c0-10.83,8.77-19.61,19.61-19.61s19.61,8.79,19.61,19.61ZM1171.47,931.21h-63.91v-247.27h90.61v180.11c0,3.08-4.29,3.8-5.31.91l-6.71-19.12c-.11-.29-.16-.6-.16-.91v-114.91c0-18.55-15.17-34.2-33.71-33.89-18.01.31-32.57,15.05-32.57,33.13v155.88c0,17.57,14.33,33.21,31.89,33.87,5.52.2,10.75-.96,15.39-3.16,2.13-1.01,4.49-.03,5.27,2.19l2.83,8.05c.88,2.51-.97,5.12-3.63,5.12ZM1211.7,918.69v-248.27h-117.67v274.31h117.67v-.05h9.11l-9.11-25.99Z"/></g><g id="g138"><path id="path140" class="cls-1" d="M1799.53,356.87v97.99c0,10.83-8.77,19.6-19.6,19.6s-19.6-8.77-19.6-19.6v-97.97h-39.16s-.03,274.32-.03,274.32h39.19v-97.95c0-10.83,8.77-19.6,19.6-19.6s19.6,8.77,19.6,19.6v97.95h39.19v-274.31l-39.19-.03ZM1825.2,370.39v247.31h-12.16v-84.44c0-18.25-14.85-33.11-33.11-33.11s-33.11,14.85-33.11,33.11v84.44h-12.16v-247.29h12.16v84.45c0,18.27,14.85,33.11,33.11,33.11s33.11-14.84,33.11-33.11v-84.47h12.16Z"/></g><g id="g142"><path id="path144" class="cls-1" d="M1172.4,983.92v97.99c0,10.83-8.77,19.6-19.6,19.6s-19.6-8.77-19.6-19.6v-97.97h-39.16s-.03,156.77-.03,156.77h58.79c10.83,0,19.6,8.77,19.6,19.6v97.95h39.19v-274.31l-39.19-.03ZM1198.06,997.44v247.31h-12.16v-84.44c0-18.25-14.85-33.11-33.11-33.11h-45.25v-129.75h12.15v84.45c0,18.27,14.85,33.11,33.11,33.11s33.11-14.84,33.11-33.11v-84.47h12.16Z"/></g><g id="D"><path id="path148" class="cls-1" d="M1139.57,592.04c-3.16,0-6.33-2.25-6.33-6.27v-183.59c0-4.01,3.17-6.27,6.33-6.27,2.45,0,4.91,1.36,5.88,4.32l26.37,80.41c2.84,8.67,2.84,18.01,0,26.68l-26.37,80.4c-.97,2.95-3.43,4.31-5.88,4.31ZM1094.05,356.81v274.4h39.19l39.13-.04,45.85-137.2-45.83-137.16h-78.35ZM1139.57,605.56c8.65,0,16-5.35,18.71-13.63l26.39-80.39c3.77-11.48,3.77-23.61,0-35.09l-26.37-80.43c-2.72-8.27-10.07-13.61-18.72-13.61-11.12,0-19.84,8.68-19.84,19.77v183.59c0,11.09,8.72,19.79,19.84,19.79M1119.73,370.3h13.49s29.44.04,29.44.04l41.32,123.63-41.35,123.71-29.4.03h-25.67v-247.4h12.16"/></g><g id="g150"><path id="path152" class="cls-1" d="M780.52,250.24h-39.15v-39.15h39.15v39.15Z"/></g><g id="g154"><path id="path156" class="cls-1" d="M2472.98,670.69h-41.2l-20.92,64.03c-.51,1.55-1.85,2.32-3.2,2.32s-2.69-.77-3.2-2.32l-20.92-64.03h-41.2l44.72,136.85-45,137.65h41.23l21.17-64.81c.51-1.55,1.85-2.32,3.2-2.32s2.69.77,3.2,2.32l21.17,64.81h41.23l-45-137.65,44.72-136.85ZM2454.47,684.11l-38.96,119.25-1.36,4.17,1.36,4.16,39.24,120.07h-12.99l-18.16-55.56c-2.27-6.92-8.67-11.57-15.95-11.57s-13.69,4.67-15.95,11.57l-18.16,55.56h-12.99l39.24-120.07,1.36-4.16-1.36-4.17-38.96-119.25h12.97s17.89,54.75,17.89,54.75c2.25,6.93,8.67,11.59,15.95,11.59s13.68-4.65,15.95-11.56l17.91-54.76h12.96"/></g><g id="g158"><path id="path160" class="cls-1" d="M2531.13,785c0,8.53,6.75,16.77,16.77,16.77,16.01,0,20.75-16.75,20.75-16.75l33.92-100.75h12.2s-83.68,248.48-83.68,248.48h-12.2l32.87-96.23c3.79-11-4.81-21.97-15.95-21.97h-16.91v-130.31h12.21v100.75ZM2589.68,670.72l-38.75,115.91c-.43,1.31-1.65,2.19-3.03,2.19-1.77,0-3.2-1.43-3.2-3.2l-.03-114.93h-39.33v157.45s25.79,0,25.79,0c2.83,0,4.83,2.77,3.92,5.45l-37.95,112.68,47.56.07,91.89-275.65-46.88.04Z"/></g><g id="g162"><path id="path164" class="cls-1" d="M2126.44,572.45v-201.64h12.15v246.89h-90.48v-103.85h12.15v58.6c0,18.25,14.85,33.09,33.09,33.09s33.09-14.84,33.09-33.09ZM2112.93,357.3v215.15c0,10.81-8.76,19.59-19.59,19.59s-19.59-8.77-19.59-19.59v-72.07h-39.16v130.83h117.49v-273.91h-39.16Z"/></g><g id="g166"><path id="path168" class="cls-1" d="M2765.58,920.66v12.16l-94.16-.08,67.97-203.03c5.49-16.4-6.71-33.35-24-33.35h-40.35v-12.16l92.95.05-67.09,202.8c-5.47,16.55,6.85,33.6,24.28,33.6h40.4ZM2713.48,890.61l73.84-219.91h-125.77v39.17h53.84c8.52,0,14.53,8.36,11.83,16.44l-73.89,219.95,125.77.07v-39.17h-53.99c-8.56,0-14.53-8.49-11.63-16.55Z"/></g></g></svg>