<?xml version="1.0" encoding="UTF-8" standalone="no"?>
<svg
   xmlns:dc="http://purl.org/dc/elements/1.1/"
   xmlns:cc="http://creativecommons.org/ns#"
   xmlns:rdf="http://www.w3.org/1999/02/22-rdf-syntax-ns#"
   xmlns:svg="http://www.w3.org/2000/svg"
   xmlns="http://www.w3.org/2000/svg"
   viewBox="0 0 3291.8799 2427.0933"
   height="2427.0933"
   width="3291.8799"
   xml:space="preserve"
   id="svg2"
   version="1.1"><metadata
     id="metadata8"><rdf:RDF><cc:Work
         rdf:about=""><dc:format>image/svg+xml</dc:format><dc:type
           rdf:resource="http://purl.org/dc/dcmitype/StillImage" /></cc:Work></rdf:RDF></metadata><defs
     id="defs6" /><g
     transform="matrix(1.3333333,0,0,-1.3333333,0,2427.0933)"
     id="g10"><path
       id="path12"
       style="fill:#ffffff;fill-opacity:1;fill-rule:nonzero;stroke:none"
       d="M 0,0 H 2468.909 V 1820.319 H 0 Z" /><g
       transform="translate(1729.7671,1176.281)"
       id="g14"><path
         id="path16"
         style="fill:none;stroke:#4289ba;stroke-width:1;stroke-linecap:butt;stroke-linejoin:miter;stroke-miterlimit:10;stroke-dasharray:none;stroke-opacity:1"
         d="m 0,0 -30.88,-0.03 -28.92,-86.5 c -0.32,-0.98 -1.24,-1.64 -2.26,-1.64 -1.32,0 -2.39,1.07 -2.39,2.39 L -64.47,0 h -29.36 l -0.01,-205.73 h 29.36 l 0.01,85.78 c 0,1.32 1.07,2.39 2.39,2.39 1.03,0 1.94,-0.66 2.26,-1.63 l 28.92,-86.51 30.88,-0.03 -33.74,102.86 z m -74.58,-85.78 c 0,-6.9 5.62,-12.52 12.52,-12.52 5.39,0 10.16,3.44 11.87,8.55 l 26.6,79.6 9.6,0.01 -29.39,-89.57 -1.04,-3.16 1.04,-3.16 29.37,-89.56 -9.59,0.01 -26.61,79.59 c -1.7,5.12 -6.48,8.56 -11.87,8.56 -6.9,0 -12.52,-5.62 -12.52,-12.52 l -0.01,-75.65 h -9.1 l 0.01,185.47 h 9.1 z" /></g><g
       transform="translate(1048.0961,1176.337)"
       id="g18"><path
         id="path20"
         style="fill:none;stroke:#4289ba;stroke-width:1;stroke-linecap:butt;stroke-linejoin:miter;stroke-miterlimit:10;stroke-dasharray:none;stroke-opacity:1"
         d="m 0,0 v -205.82 h 29.39 v 73.49 c 0,8.13 6.58,14.71 14.71,14.71 l 44.06,0.02 v 29.37 l -44.06,0.02 c -8.13,0 -14.71,6.58 -14.71,14.71 v 29.39 c 0,8.12 6.58,14.7 14.71,14.7 l 29.38,0.02 h 14.68 v 29.37 z m 78.03,-10.15 v -9.1 H 73.47 L 44.1,-19.27 c -13.7,0 -24.85,-11.15 -24.85,-24.84 V -73.5 c 0,-13.7 11.15,-24.85 24.84,-24.85 l 33.94,-0.01 v -9.11 l -33.93,-0.01 c -13.7,0 -24.85,-11.15 -24.85,-24.85 v -63.35 h -9.12 v 185.54 z" /></g><g
       transform="translate(930.5591,1176.374)"
       id="g22"><path
         id="path24"
         style="fill:none;stroke:#4289ba;stroke-width:1;stroke-linecap:butt;stroke-linejoin:miter;stroke-miterlimit:10;stroke-dasharray:none;stroke-opacity:1"
         d="m 0,0 v -205.82 h 88.16 v 29.37 l -44.06,0.02 c -8.13,0 -14.71,6.59 -14.71,14.71 v 29.39 c 0,8.13 6.58,14.71 14.71,14.71 l 44.06,0.02 v 29.37 l -44.06,0.02 c -8.13,0 -14.71,6.58 -14.71,14.71 v 29.39 c 0,8.12 6.58,14.7 14.71,14.7 l 29.38,0.02 h 14.68 v 29.37 z m 78.03,-10.15 v -9.1 H 73.47 L 44.1,-19.27 c -13.7,0 -24.85,-11.15 -24.85,-24.84 V -73.5 c 0,-13.7 11.15,-24.85 24.84,-24.85 l 33.94,-0.01 v -9.11 l -33.93,-0.02 c -13.7,0 -24.85,-11.14 -24.85,-24.84 v -29.39 c 0,-13.7 11.15,-24.84 24.84,-24.84 l 33.93,-0.01 0.01,-9.11 h -67.9 v 185.54 z" /></g><g
       transform="translate(783.511,500.268)"
       id="g26"><path
         id="path28"
         style="fill:none;stroke:#4289ba;stroke-width:1;stroke-linecap:butt;stroke-linejoin:miter;stroke-miterlimit:10;stroke-dasharray:none;stroke-opacity:1"
         d="m 0,0 v 205.74 h -88.13 v -29.36 l 44.05,-0.02 c 8.12,0 14.7,-6.58 14.7,-14.7 v -29.38 c 0,-8.12 -6.58,-14.71 -14.7,-14.71 l -44.05,-0.01 V 88.2 l 44.05,-0.02 c 8.12,0 14.7,-6.58 14.7,-14.7 V 44.1 c 0,-8.12 -6.58,-14.71 -14.7,-14.71 L -73.45,29.38 H -88.13 V 0.02 Z m -78,10.15 v 9.1 h 4.56 l 29.36,0.01 c 13.69,0 24.83,11.14 24.83,24.84 v 29.38 c 0,13.69 -11.14,24.83 -24.83,24.83 L -78,98.32 v 9.11 l 33.92,0.01 c 13.69,0 24.83,11.14 24.83,24.84 v 29.38 c 0,13.69 -11.14,24.83 -24.83,24.83 L -78,186.51 v 9.1 h 67.87 V 10.13 Z" /></g><g
       transform="translate(695.483,1176.368)"
       id="g30"><path
         id="path32"
         style="fill:none;stroke:#4289ba;stroke-width:1;stroke-linecap:butt;stroke-linejoin:miter;stroke-miterlimit:10;stroke-dasharray:none;stroke-opacity:1"
         d="m 0,0 v -205.82 h 88.16 v 29.37 l -44.06,0.02 c -8.13,0 -14.71,6.59 -14.71,14.71 v 117.61 c 0,8.12 6.58,14.7 14.71,14.7 l 29.38,0.02 h 14.68 v 29.37 z m 78.03,-10.15 v -9.1 H 73.47 L 44.1,-19.27 c -13.7,0 -24.85,-11.15 -24.85,-24.84 v -117.61 c 0,-13.7 11.15,-24.84 24.84,-24.84 l 33.93,-0.01 0.01,-9.11 h -67.9 v 185.54 z" /></g><g
       transform="translate(504.4001,1088.1219)"
       id="g34"><path
         id="path36"
         style="fill:none;stroke:#4289ba;stroke-width:1;stroke-linecap:butt;stroke-linejoin:miter;stroke-miterlimit:10;stroke-dasharray:none;stroke-opacity:1"
         d="m 0,0 c -8.12,0 -14.7,6.58 -14.7,14.7 v 29.39 c 0,8.12 6.58,14.71 14.7,14.71 8.12,0 14.7,-6.59 14.7,-14.71 V 14.7 C 14.7,6.58 8.12,0 0,0 Z m 44.1,88.2 h -88.18 l -0.02,-205.78 h 29.4 v 73.48 c 0,8.11 6.58,14.7 14.7,14.7 8.12,0 14.7,-6.59 14.7,-14.7 v -73.48 H 44.1 Z M 0,-10.13 c 13.69,0 24.84,11.14 24.84,24.83 V 44.09 C 24.84,57.79 13.7,68.93 0,68.93 -13.69,68.93 -24.84,57.79 -24.84,44.09 V 14.7 c 0,-13.69 11.15,-24.83 24.84,-24.83 m 33.92,-97.32 h -9.08 v 63.35 c 0,13.69 -11.14,24.83 -24.84,24.83 -13.69,0 -24.84,-11.14 -24.84,-24.83 v -63.35 h -9.12 l 0.01,185.51 h 67.91 z" /></g><g
       transform="translate(739.4701,852.967)"
       id="g38"><path
         id="path40"
         style="fill:none;stroke:#4289ba;stroke-width:1;stroke-linecap:butt;stroke-linejoin:miter;stroke-miterlimit:10;stroke-dasharray:none;stroke-opacity:1"
         d="m 0,0 c -8.12,0 -14.7,6.58 -14.7,14.7 v 29.38 c 0,8.12 6.58,14.7 14.7,14.7 8.12,0 14.7,-6.58 14.7,-14.7 V 14.7 C 14.7,6.58 8.12,0 0,0 Z m 44.09,88.18 h -88.16 l -0.02,-205.74 h 29.39 v 73.46 c 0,8.12 6.58,14.7 14.7,14.7 H 44.09 Z M 0,-10.13 c 13.69,0 24.83,11.14 24.83,24.83 v 29.38 c 0,13.7 -11.14,24.84 -24.83,24.84 -13.69,0 -24.83,-11.14 -24.83,-24.84 V 14.7 c 0,-13.69 11.14,-24.83 24.83,-24.83 m 33.92,-9.13 H 0 c -13.69,0 -24.83,-11.14 -24.83,-24.84 v -63.33 h -9.13 l 0.02,185.48 h 67.9 z" /></g><g
       transform="translate(974.7051,852.965)"
       id="g42"><path
         id="path44"
         style="fill:none;stroke:#4289ba;stroke-width:1;stroke-linecap:butt;stroke-linejoin:miter;stroke-miterlimit:10;stroke-dasharray:none;stroke-opacity:1"
         d="m 0,0 c -8.12,0 -14.7,6.58 -14.7,14.7 v 0.01 29.36 0.01 c 0,8.11 6.58,14.69 14.7,14.69 8.12,0 14.7,-6.58 14.7,-14.69 V 14.7 C 14.7,6.58 8.12,0 0,0 Z m -44.06,88.18 v -205.74 h 29.35 l 0.02,85.78 c 0,1.32 1.07,2.39 2.39,2.39 1.03,0 1.94,-0.66 2.26,-1.64 l 28.92,-86.5 30.88,-0.03 -26.54,79.62 c -1.4,4.2 -0.65,8.54 3.78,8.54 l 17.06,0.02 0.02,117.53 z M -24.83,43.52 V 15.24 15.23 14.7 c 0,-13.69 11.14,-24.83 24.83,-24.83 13.69,0 24.83,11.14 24.83,24.84 V 44.08 C 24.83,57.77 13.69,68.9 0,68.9 -13.69,68.9 -24.83,57.77 -24.83,44.08 V 43.52 M 33.95,78.02 33.93,-19.26 27,-19.27 c -4.8,0 -9.07,-2.11 -11.73,-5.8 -3.05,-4.23 -3.65,-10.09 -1.66,-16.08 l 22.09,-66.26 h -9.53 l -26.6,79.59 c -1.7,5.12 -6.48,8.56 -11.87,8.56 -6.9,0 -12.52,-5.62 -12.52,-12.52 l -0.01,-75.65 h -9.1 V 78.05 Z" /></g><g
       transform="translate(1753.489,970.364)"
       id="g46"><path
         id="path48"
         style="fill:none;stroke:#4289ba;stroke-width:1;stroke-linecap:butt;stroke-linejoin:miter;stroke-miterlimit:10;stroke-dasharray:none;stroke-opacity:1"
         d="M 0,0 88.16,0.02 V 29.39 L 44.1,29.41 c -8.13,0 -14.71,6.58 -14.71,14.7 V 205.82 H 0 Z m 10.13,10.14 v 185.54 h 9.12 V 44.11 C 19.25,30.42 30.4,19.27 44.1,19.27 l 29.37,-0.02 h 4.56 v -9.1 z" /></g><g
       transform="translate(1048.1862,941.1461)"
       id="g50"><path
         id="path52"
         style="fill:none;stroke:#4289ba;stroke-width:1;stroke-linecap:butt;stroke-linejoin:miter;stroke-miterlimit:10;stroke-dasharray:none;stroke-opacity:1"
         d="m 0,0 v -117.54 l 44.22,-0.03 c 8.04,-0.09 14.53,-6.63 14.53,-14.69 v -29.38 c 0,-8.12 -6.58,-14.71 -14.7,-14.71 L 0,-176.36 v -29.36 l 88.13,-0.02 V -88.2 l -44.22,0.03 c -8.04,0.09 -14.53,6.63 -14.53,14.69 v 29.38 c 0,8.12 6.58,14.71 14.7,14.71 l 44.05,0.01 v 29.36 z m 78,-10.15 v -9.1 l -33.92,-0.01 c -13.69,0 -24.83,-11.14 -24.83,-24.84 v -29.38 c 0,-13.53 11.01,-24.67 24.65,-24.82 L 78,-98.32 v -97.29 l -67.87,0.02 v 9.1 l 33.92,0.01 c 13.69,0 24.83,11.14 24.83,24.84 v 29.38 c 0,13.53 -11.01,24.67 -24.65,24.82 l -34.1,0.02 v 97.29 z" /></g><g
       transform="translate(666.0701,706.006)"
       id="g54"><path
         id="path56"
         style="fill:none;stroke:#4289ba;stroke-width:1;stroke-linecap:butt;stroke-linejoin:miter;stroke-miterlimit:10;stroke-dasharray:none;stroke-opacity:1"
         d="m 0,0 -88.13,-0.02 v -29.36 l 44.05,-0.01 c 8.12,0 14.7,-6.59 14.7,-14.71 v -29.38 c 0,-8.06 -6.49,-14.6 -14.53,-14.69 L -88.13,-88.2 V -205.74 L 0,-205.72 v 29.36 l -44.05,0.01 c -8.12,0 -14.7,6.59 -14.7,14.71 v 29.38 c 0,8.06 6.49,14.6 14.53,14.69 L 0,-117.54 Z m -10.13,-10.13 v -97.29 l -34.1,-0.02 c -13.64,-0.15 -24.65,-11.29 -24.65,-24.82 v -29.38 c 0,-13.7 11.14,-24.84 24.83,-24.84 l 33.92,-0.01 v -9.1 L -78,-195.61 v 97.29 l 34.1,0.02 c 13.64,0.15 24.65,11.29 24.65,24.82 v 29.38 c 0,13.7 -11.14,24.84 -24.83,24.84 L -78,-19.25 v 9.1 z" /></g><g
       transform="translate(1018.7711,500.268)"
       id="g58"><path
         id="path60"
         style="fill:none;stroke:#4289ba;stroke-width:1;stroke-linecap:butt;stroke-linejoin:miter;stroke-miterlimit:10;stroke-dasharray:none;stroke-opacity:1"
         d="m 0,0 v 117.54 l -44.22,0.03 c -8.04,0.09 -14.53,6.63 -14.53,14.69 v 29.38 c 0,8.12 6.58,14.71 14.7,14.71 L 0,176.36 v 29.36 l -88.13,0.02 V 88.2 l 44.22,-0.03 c 8.04,-0.09 14.53,-6.63 14.53,-14.69 V 44.1 c 0,-8.12 -6.58,-14.71 -14.7,-14.71 L -88.13,29.38 V 0.02 Z m -78,10.15 v 9.1 l 33.92,0.01 c 13.69,0 24.83,11.14 24.83,24.84 v 29.38 c 0,13.53 -11.01,24.67 -24.65,24.82 L -78,98.32 v 97.29 l 67.87,-0.02 v -9.1 l -33.92,-0.01 c -13.69,0 -24.83,-11.14 -24.83,-24.84 v -29.38 c 0,-13.53 11.01,-24.67 24.65,-24.82 l 34.1,-0.02 V 10.13 Z" /></g><g
       transform="translate(2066.6743,980.5031)"
       id="g62"><path
         id="path64"
         style="fill:none;stroke:#4289ba;stroke-width:1;stroke-linecap:butt;stroke-linejoin:miter;stroke-miterlimit:10;stroke-dasharray:none;stroke-opacity:1"
         d="m 0,0 -9.11,0.01 -0.02,151.61 c 0,13.68 -11.13,24.81 -24.81,24.81 l -29.41,-0.02 c -8.1,0 -15.43,-4.04 -20,-10.11 -3.01,-4.01 -4.83,-8.89 -4.83,-14.11 V -0.01 h -9.12 l -0.02,152.2 c 0,5.22 -1.82,10.1 -4.83,14.11 -4.56,6.07 -11.89,10.11 -19.99,10.11 l -29.4,0.02 c -13.68,0 -24.81,-11.13 -24.81,-24.81 l -0.01,-151.63 h -9.11 L -185.48,185.55 0,185.54 Z m -195.61,195.68 0.01,-205.82 h 29.36 l 0.02,161.76 c 0,8.11 6.57,14.68 14.68,14.68 l 29.39,-0.03 c 7.78,0 14.7,-6.31 14.7,-14.08 l 0.02,-162.34 h 29.39 v 162.34 c 0,7.77 6.91,14.08 14.69,14.08 l 29.41,0.03 c 8.1,0 14.68,-6.57 14.68,-14.68 l 0.03,-161.74 29.36,-0.02 v 205.82 z" /></g><g
       transform="translate(1528.6122,930.937)"
       id="g66"><path
         id="path68"
         style="fill:none;stroke:#4289ba;stroke-width:1;stroke-linecap:butt;stroke-linejoin:miter;stroke-miterlimit:10;stroke-dasharray:none;stroke-opacity:1"
         d="m 0,0 9.12,-0.01 0.02,-151.75 c 0,-13.7 11.14,-24.84 24.84,-24.84 l 29.43,0.02 c 8.11,0 15.45,4.04 20.02,10.12 3.01,4.01 4.83,8.9 4.83,14.13 V 0.01 h 9.13 l 0.02,-152.34 c 0,-5.23 1.82,-10.12 4.84,-14.13 4.56,-6.08 11.9,-10.12 20.01,-10.12 l 29.42,-0.02 c 13.7,0 24.84,11.14 24.84,24.83 l 0.01,151.78 h 9.12 l 0.01,-185.74 H 0 Z M 195.8,-195.87 195.79,10.15 H 166.4 l -0.02,-161.91 c 0,-8.12 -6.58,-14.7 -14.7,-14.7 l -29.41,0.03 c -7.79,0 -14.71,6.31 -14.71,14.1 L 107.54,10.16 H 78.12 v -162.49 c 0,-7.79 -6.93,-14.1 -14.71,-14.1 l -29.43,-0.03 c -8.12,0 -14.7,6.58 -14.7,14.7 l -0.03,161.89 -29.39,0.02 v -206.02 z" /></g><g
       transform="translate(1474.349,989.8069)"
       id="g70"><path
         id="path72"
         style="fill:none;stroke:#4289ba;stroke-width:1;stroke-linecap:butt;stroke-linejoin:miter;stroke-miterlimit:10;stroke-dasharray:none;stroke-opacity:1"
         d="m 0,0 h 4.56 v -9.12 h -67.9 V 0 h 4.57 c 13.46,0 24.82,11.09 24.82,24.21 l -0.02,118.8 c 0,13.12 -11.36,24.21 -24.81,24.21 h -4.56 v 9.12 h 67.9 v -9.12 h -4.57 c -13.46,0 -24.82,-11.09 -24.82,-24.21 l 0.01,-118.8 C -24.82,11.09 -13.45,0 0,0 Z m -0.01,157.09 14.7,0.01 v 29.37 H -73.47 V 157.1 l 14.68,-0.01 c 7.78,0 14.69,-6.3 14.69,-14.08 l 0.02,-118.8 c 0,-7.78 -6.91,-14.08 -14.69,-14.08 l -14.7,-0.01 V -19.25 H 14.69 V 10.12 L 0.01,10.13 c -7.78,0 -14.7,6.3 -14.7,14.08 l -0.01,118.8 c 0,7.78 6.91,14.08 14.69,14.08 z" /></g><g
       transform="translate(533.769,519.5731)"
       id="g74"><path
         id="path76"
         style="fill:none;stroke:#4289ba;stroke-width:1;stroke-linecap:butt;stroke-linejoin:miter;stroke-miterlimit:10;stroke-dasharray:none;stroke-opacity:1"
         d="m 0,0 h 4.56 v -9.12 h -67.9 V 0 h 4.57 c 13.46,0 24.82,11.09 24.82,24.21 l -0.02,118.8 c 0,13.12 -11.36,24.21 -24.81,24.21 h -4.56 v 9.12 h 38.51 L -24.82,24.21 C -24.82,11.09 -13.45,0 0,0 Z M -73.47,186.47 V 157.1 l 14.68,-0.01 c 7.78,0 14.69,-6.3 14.69,-14.08 l 0.02,-118.8 c 0,-7.78 -6.91,-14.08 -14.69,-14.08 l -14.7,-0.01 V -19.25 H 14.69 V 10.12 L 0.01,10.13 c -7.78,0 -14.7,6.3 -14.7,14.08 l -0.01,162.26 z" /></g><g
       transform="translate(1253.87,941.145)"
       id="g78"><path
         id="path80"
         style="fill:none;stroke:#4289ba;stroke-width:1;stroke-linecap:butt;stroke-linejoin:miter;stroke-miterlimit:10;stroke-dasharray:none;stroke-opacity:1"
         d="m 0,0 h -88.2 v -29.39 l 14.69,-0.01 c 7.78,0 14.7,-6.3 14.7,-14.08 l 0.02,-162.34 h 29.39 v 162.34 c 0,7.78 6.91,14.08 14.7,14.08 L 0,-29.39 Z m -10.13,-19.26 h -4.57 c -13.47,0 -24.84,-11.09 -24.84,-24.22 v -152.2 h -9.12 l -0.01,152.2 c 0,13.13 -11.38,24.22 -24.83,24.22 h -4.56 v 9.13 h 67.93 z" /></g><g
       transform="translate(460.3031,735.408)"
       id="g82"><path
         id="path84"
         style="fill:none;stroke:#4289ba;stroke-width:1;stroke-linecap:butt;stroke-linejoin:miter;stroke-miterlimit:10;stroke-dasharray:none;stroke-opacity:1"
         d="m 0,0 h 29.36 l 0.02,161.65 c 0,8.11 6.58,14.7 14.7,14.7 8.11,0 14.69,-6.59 14.69,-14.7 L 58.79,0 H 88.15 V 205.74 H 0 Z M 10.13,195.6 H 78.02 V 10.13 h -9.1 L 68.9,161.65 c 0,13.69 -11.13,24.83 -24.82,24.83 -13.69,0 -24.83,-11.14 -24.83,-24.83 L 19.23,10.13 h -9.1 z" /></g><g
       transform="translate(621.9391,764.837)"
       id="g86"><path
         id="path88"
         style="fill:none;stroke:#4289ba;stroke-width:1;stroke-linecap:butt;stroke-linejoin:miter;stroke-miterlimit:10;stroke-dasharray:none;stroke-opacity:1"
         d="m 0,0 c -8.12,0 -14.71,6.59 -14.71,14.71 v 117.47 c 0,8.12 6.59,14.71 14.71,14.71 8.13,0 14.71,-6.59 14.71,-14.71 V 14.71 C 14.71,6.59 8.13,0 0,0 Z m 24.85,132.18 c 0,13.7 -11.15,24.85 -24.85,24.85 -13.7,0 -24.85,-11.15 -24.85,-24.85 V 14.71 c 0,-13.7 11.15,-24.85 24.85,-24.85 13.7,0 24.85,11.15 24.85,24.85 z" /></g><g
       transform="translate(655.92,745.5601)"
       id="g90"><path
         id="path92"
         style="fill:none;stroke:#4289ba;stroke-width:1;stroke-linecap:butt;stroke-linejoin:miter;stroke-miterlimit:10;stroke-dasharray:none;stroke-opacity:1"
         d="M 0,0 H -67.96 V 185.45 H 0 Z M -78.1,-10.15 H 10.14 V 195.59 H -78.1 Z" /></g><g
       transform="translate(1562.5941,529.652)"
       id="g94"><path
         id="path96"
         style="fill:none;stroke:#4289ba;stroke-width:1;stroke-linecap:butt;stroke-linejoin:miter;stroke-miterlimit:10;stroke-dasharray:none;stroke-opacity:1"
         d="m 0,0 c -8.13,0 -14.71,6.59 -14.71,14.71 v 117.47 c 0,8.12 6.58,14.71 14.71,14.71 8.12,0 14.71,-6.59 14.71,-14.71 V 14.71 C 14.71,6.59 8.12,0 0,0 Z m 24.85,132.18 c 0,13.7 -11.15,24.85 -24.85,24.85 -13.7,0 -24.85,-11.15 -24.85,-24.85 V 14.71 c 0,-13.7 11.15,-24.85 24.85,-24.85 13.7,0 24.85,11.15 24.85,24.85 z" /></g><g
       transform="translate(1596.5801,510.37)"
       id="g98"><path
         id="path100"
         style="fill:none;stroke:#4289ba;stroke-width:1;stroke-linecap:butt;stroke-linejoin:miter;stroke-miterlimit:10;stroke-dasharray:none;stroke-opacity:1"
         d="M 0,0 H -67.97 V 185.45 H 0 Z M -78.11,-10.14 H 10.14 V 195.6 h -88.25 z" /></g><g
       transform="translate(1400.7811,735.366)"
       id="g102"><path
         id="path104"
         style="fill:none;stroke:#4289ba;stroke-width:1;stroke-linecap:butt;stroke-linejoin:miter;stroke-miterlimit:10;stroke-dasharray:none;stroke-opacity:1"
         d="M 0,0 H 29.38 L 93.77,205.73 H 64.4 L 42.27,135.12 c -0.85,-2.67 -3.32,-4.62 -6.27,-4.62 -3.65,0 -6.61,2.96 -6.61,6.61 l -0.01,68.62 H 0 Z m 10.07,10.07 v 185.59 h 9.24 l 0.01,-58.55 c 0,-9.19 7.48,-16.67 16.68,-16.67 7.27,0 13.65,4.67 15.87,11.67 l 19.93,63.55 h 8.27 L 21.98,10.07 H 10.07" /></g><g
       transform="translate(622.0041,999.9449)"
       id="g106"><path
         id="path108"
         style="fill:none;stroke:#4289ba;stroke-width:1;stroke-linecap:butt;stroke-linejoin:miter;stroke-miterlimit:10;stroke-dasharray:none;stroke-opacity:1"
         d="m 0,0 c -8.12,0 -14.7,6.58 -14.7,14.7 v 29.39 c 0,8.12 6.58,14.71 14.7,14.71 8.12,0 14.7,-6.59 14.7,-14.71 V 14.7 C 14.7,6.58 8.12,0 0,0 Z m 0,88.2 c -8.12,0 -14.7,6.58 -14.7,14.7 v 29.39 c 0,8.12 6.58,14.7 14.7,14.7 8.12,0 14.7,-6.58 14.7,-14.7 V 102.9 C 14.7,94.78 8.12,88.2 0,88.2 Z m 44.1,88.2 H -44.08 L -44.1,-29.39 H 44.05 Z M 0,-10.13 c 13.69,0 24.84,11.14 24.84,24.84 v 29.38 c 0,13.7 -11.15,24.84 -24.84,24.84 -6.63,0 -12.87,-2.58 -17.56,-7.27 -4.69,-4.69 -7.28,-10.93 -7.28,-17.58 V 14.7 c 0,-6.63 2.59,-12.87 7.28,-17.56 4.69,-4.69 10.93,-7.27 17.56,-7.27 m 0,88.2 c 13.69,0 24.84,11.14 24.84,24.84 v 29.38 c 0,13.7 -11.15,24.84 -24.84,24.84 -6.63,0 -12.87,-2.58 -17.56,-7.28 -4.69,-4.69 -7.28,-10.92 -7.28,-17.57 V 102.9 c 0,-6.63 2.59,-12.87 7.28,-17.56 4.69,-4.69 10.93,-7.27 17.56,-7.27 m 33.92,-97.32 h -67.88 l 0.01,185.51 h 67.91 z" /></g><g
       transform="translate(1327.2921,529.623)"
       id="g110"><path
         id="path112"
         style="fill:none;stroke:#4289ba;stroke-width:1;stroke-linecap:butt;stroke-linejoin:miter;stroke-miterlimit:10;stroke-dasharray:none;stroke-opacity:1"
         d="m 0,0 c -8.12,0 -14.7,6.58 -14.7,14.7 v 29.38 c 0,8.12 6.58,14.7 14.7,14.7 8.12,0 14.7,-6.58 14.7,-14.7 V 14.7 C 14.7,6.58 8.12,0 0,0 Z m 0,88.17 c -8.12,0 -14.7,6.58 -14.7,14.7 v 29.38 c 0,8.12 6.58,14.7 14.7,14.7 8.12,0 14.7,-6.58 14.7,-14.7 V 102.87 C 14.7,94.75 8.12,88.17 0,88.17 Z m 44.08,88.17 H -44.07 L -44.08,-29.38 H 44.04 Z M 0,-10.13 c 13.69,0 24.83,11.14 24.83,24.84 v 29.37 c 0,13.69 -11.14,24.83 -24.83,24.83 -6.63,0 -12.87,-2.58 -17.56,-7.27 -4.69,-4.69 -7.27,-10.93 -7.27,-17.57 V 14.7 c 0,-6.63 2.58,-12.87 7.27,-17.56 4.69,-4.69 10.93,-7.27 17.56,-7.27 m 0,88.17 c 13.69,0 24.83,11.14 24.83,24.84 v 29.37 c 0,13.69 -11.14,24.83 -24.83,24.83 -6.63,0 -12.87,-2.58 -17.56,-7.27 -4.69,-4.69 -7.27,-10.93 -7.27,-17.57 v -29.37 c 0,-6.63 2.58,-12.87 7.27,-17.56 4.69,-4.69 10.93,-7.27 17.56,-7.27 m 33.91,-97.29 h -67.86 l 0.01,185.46 h 67.89 z" /></g><g
       transform="translate(1092.2501,529.5699)"
       id="g114"><path
         id="path116"
         style="fill:none;stroke:#4289ba;stroke-width:1;stroke-linecap:butt;stroke-linejoin:miter;stroke-miterlimit:10;stroke-dasharray:none;stroke-opacity:1"
         d="m 0,0 c -8.12,0 -14.7,6.58 -14.7,14.7 v 29.39 c 0,8.12 6.58,14.71 14.7,14.71 8.12,0 14.7,-6.59 14.7,-14.71 V 14.7 C 14.7,6.58 8.12,0 0,0 Z m 44.1,176.4 v 0 H -44.08 L -44.1,-29.39 H 44.05 L 44.08,88.2 H 0 c -8.12,0 -14.7,6.58 -14.7,14.7 v 29.39 c 0,8.12 6.58,14.7 14.7,14.7 H 44.1 Z M 0,-10.13 c 13.69,0 24.84,11.14 24.84,24.84 v 29.38 c 0,13.7 -11.15,24.84 -24.84,24.84 -6.63,0 -12.87,-2.58 -17.56,-7.27 -4.69,-4.69 -7.28,-10.93 -7.28,-17.58 V 14.7 c 0,-6.63 2.59,-12.87 7.28,-17.56 4.69,-4.69 10.93,-7.27 17.56,-7.27 m 33.94,167.48 c 0,0 -20.25,-0.22 -33.94,-0.22 -6.63,0 -12.87,-2.58 -17.56,-7.28 -4.69,-4.69 -7.28,-10.92 -7.28,-17.57 V 102.9 c 0,-6.63 2.59,-12.87 7.28,-17.56 4.69,-4.69 10.93,-7.27 17.56,-7.27 h 33.95 l -0.03,-97.32 h -67.88 l 0.01,185.51 h 67.89 z" /></g><g
       transform="translate(1444.8801,676.58)"
       id="g118"><path
         id="path120"
         style="fill:none;stroke:#4289ba;stroke-width:1;stroke-linecap:butt;stroke-linejoin:miter;stroke-miterlimit:10;stroke-dasharray:none;stroke-opacity:1"
         d="M 0,0 C 8.12,0 14.7,-6.58 14.7,-14.7 V -44.09 C 14.7,-52.21 8.12,-58.8 0,-58.8 c -8.12,0 -14.7,6.59 -14.7,14.71 V -14.7 C -14.7,-6.58 -8.12,0 0,0 Z M -44.1,-176.4 H 44.08 L 44.1,29.39 H -44.05 L -44.08,-88.2 H 0 c 8.12,0 14.7,-6.58 14.7,-14.7 v -29.39 c 0,-8.12 -6.58,-14.7 -14.7,-14.7 H -44.1 Z M 0,10.13 c -13.69,0 -24.84,-11.14 -24.84,-24.84 v -29.38 c 0,-13.7 11.15,-24.84 24.84,-24.84 6.63,0 12.87,2.58 17.56,7.27 4.69,4.69 7.28,10.93 7.28,17.58 v 29.38 c 0,6.63 -2.59,12.87 -7.28,17.56 C 12.87,7.55 6.63,10.13 0,10.13 m -33.94,-167.48 c 0,0 20.25,0.22 33.94,0.22 6.63,0 12.87,2.58 17.56,7.28 4.69,4.69 7.28,10.92 7.28,17.57 v 29.38 c 0,6.63 -2.59,12.87 -7.28,17.56 -4.69,4.69 -10.93,7.27 -17.56,7.27 h -33.95 l 0.03,97.32 h 67.88 l -0.01,-185.51 h -67.89 z" /></g><g
       transform="translate(1371.368,941.145)"
       id="g122"><path
         id="path124"
         style="fill:none;stroke:#4289ba;stroke-width:1;stroke-linecap:butt;stroke-linejoin:miter;stroke-miterlimit:10;stroke-dasharray:none;stroke-opacity:1"
         d="m 0,0 h -29.36 l -0.02,-161.65 c 0,-8.11 -6.58,-14.7 -14.7,-14.7 -8.11,0 -14.69,6.59 -14.69,14.7 L -58.79,0 H -88.15 V -205.74 H 0 Z m -10.13,-195.6 h -67.89 v 185.47 h 9.1 l 0.02,-151.52 c 0,-13.69 11.13,-24.83 24.82,-24.83 13.69,0 24.83,11.14 24.83,24.83 l 0.02,151.52 h 9.1 z" /></g><g
       transform="translate(1209.8131,989.8069)"
       id="g126"><path
         id="path128"
         style="fill:none;stroke:#4289ba;stroke-width:1;stroke-linecap:butt;stroke-linejoin:miter;stroke-miterlimit:10;stroke-dasharray:none;stroke-opacity:1"
         d="m 0,0 c 13.69,0 24.82,11.13 24.82,24.82 v 43.92 h 9.11 V -9.12 h -67.86 v 185.17 h 67.86 v -9.12 H 0 c -13.69,0 -24.82,-11.14 -24.82,-24.82 V 24.82 C -24.82,11.13 -13.69,0 0,0 Z m 0,156.8 h 44.06 v 29.38 H -44.06 V -19.25 H 44.06 V 78.87 H 14.69 V 24.82 C 14.69,16.7 8.11,10.13 0,10.13 c -8.11,0 -14.69,6.57 -14.69,14.69 v 117.29 c 0,8.11 6.58,14.69 14.69,14.69 z" /></g><g
       transform="translate(1209.7721,686.537)"
       id="g130"><path
         id="path132"
         style="fill:none;stroke:#4289ba;stroke-width:1;stroke-linecap:butt;stroke-linejoin:miter;stroke-miterlimit:10;stroke-dasharray:none;stroke-opacity:1"
         d="m 0,0 c -13.69,0 -24.82,-11.13 -24.82,-24.82 v -43.95 h -9.11 V 9.12 H 33.93 V -176.05 H 24.82 V -24.82 C 24.82,-11.13 13.69,0 0,0 Z M 44.06,-186.18 V 19.25 h -88.12 v -98.12 h 29.37 v 54.05 c 0,8.12 6.58,14.69 14.69,14.69 8.11,0 14.69,-6.57 14.69,-14.69 v -161.36 z" /></g><g
       transform="translate(885.0631,745.591)"
       id="g134"><path
         id="path136"
         style="fill:none;stroke:#4289ba;stroke-width:1;stroke-linecap:butt;stroke-linejoin:miter;stroke-miterlimit:10;stroke-dasharray:none;stroke-opacity:1"
         d="m 0,0 -28.93,82.55 h 9.12 L 9.12,0 Z M -13.23,151.42 V 92.68 h -29.2 l 24.4,-69.58 c -2.62,-2.39 -6.09,-3.86 -9.91,-3.86 -8.13,0 -14.71,6.59 -14.71,14.71 v 117.47 c 0,8.12 6.58,14.71 14.71,14.71 8.12,0 14.71,-6.59 14.71,-14.71 z M -13.99,-0.04 H -61.92 V 185.41 H 6.04 V 50.33 c 0,-2.31 -3.22,-2.85 -3.98,-0.68 l -5.03,14.34 c -0.08,0.22 -0.12,0.45 -0.12,0.68 v 86.18 c 0,13.91 -11.38,25.65 -25.28,25.42 -13.51,-0.23 -24.43,-11.29 -24.43,-24.85 V 34.51 c 0,-13.18 10.75,-24.91 23.92,-25.4 4.14,-0.15 8.06,0.72 11.54,2.37 1.6,0.76 3.37,0.02 3.95,-1.64 l 2.12,-6.04 c 0.66,-1.88 -0.73,-3.84 -2.72,-3.84 z m 30.17,9.39 v 186.2 H -72.07 V -10.18 h 88.25 v 0.04 h 6.83 z" /></g><g
       transform="translate(1342.1182,1176.3051)"
       id="g138"><path
         id="path140"
         style="fill:none;stroke:#4289ba;stroke-width:1;stroke-linecap:butt;stroke-linejoin:miter;stroke-miterlimit:10;stroke-dasharray:none;stroke-opacity:1"
         d="m 0,0 v -73.49 c 0,-8.12 -6.58,-14.7 -14.7,-14.7 -8.12,0 -14.7,6.58 -14.7,14.7 v 73.48 l -29.37,-0.01 -0.02,-205.73 h 29.39 v 73.46 c 0,8.12 6.58,14.7 14.7,14.7 8.12,0 14.7,-6.58 14.7,-14.7 v -73.46 H 29.39 V -0.02 Z m 19.25,-10.14 v -185.48 h -9.12 v 63.33 c 0,13.69 -11.14,24.83 -24.83,24.83 -13.69,0 -24.83,-11.14 -24.83,-24.83 v -63.33 h -9.12 l 0.01,185.47 h 9.11 v -63.34 c 0,-13.7 11.14,-24.83 24.83,-24.83 13.69,0 24.83,11.13 24.83,24.83 v 63.35 z" /></g><g
       transform="translate(871.769,706.023)"
       id="g142"><path
         id="path144"
         style="fill:none;stroke:#4289ba;stroke-width:1;stroke-linecap:butt;stroke-linejoin:miter;stroke-miterlimit:10;stroke-dasharray:none;stroke-opacity:1"
         d="m 0,0 v -73.49 c 0,-8.12 -6.58,-14.7 -14.7,-14.7 -8.12,0 -14.7,6.58 -14.7,14.7 v 73.48 l -29.37,-0.01 -0.02,-117.57 h 44.09 c 8.12,0 14.7,-6.58 14.7,-14.7 v -73.46 H 29.39 V -0.02 Z m 19.25,-10.14 v -185.48 h -9.12 v 63.33 c 0,13.69 -11.14,24.83 -24.83,24.83 h -33.94 v 97.31 h 9.11 v -63.34 c 0,-13.7 11.14,-24.83 24.83,-24.83 13.69,0 24.83,11.13 24.83,24.83 v 63.35 z" /></g><g
       transform="translate(847.1451,999.934)"
       id="g146"><path
         id="path148"
         style="fill:none;stroke:#4289ba;stroke-width:1;stroke-linecap:butt;stroke-linejoin:miter;stroke-miterlimit:10;stroke-dasharray:none;stroke-opacity:1"
         d="m 0,0 c -2.37,0 -4.75,1.69 -4.75,4.7 v 137.69 c 0,3.01 2.38,4.7 4.75,4.7 1.84,0 3.68,-1.02 4.41,-3.24 L 24.19,83.54 c 2.13,-6.5 2.13,-13.51 0,-20.01 L 4.41,3.23 C 3.68,1.02 1.84,0 0,0 Z M -34.14,176.42 V -29.38 H -4.75 L 24.6,-29.35 58.99,73.55 24.62,176.42 Z M 0,-10.14 c 6.49,0 12,4.01 14.03,10.22 l 19.79,60.29 c 2.83,8.61 2.83,17.71 0,26.32 L 14.04,147.01 C 12,153.21 6.49,157.22 0,157.22 c -8.34,0 -14.88,-6.51 -14.88,-14.83 V 4.7 c 0,-8.32 6.54,-14.84 14.88,-14.84 M -14.88,166.3 v 0 L -4.76,166.29 17.32,166.27 48.31,73.55 17.3,-19.23 -4.75,-19.25 H -24 V 166.3 h 9.12" /></g><g
       transform="translate(577.86,1256.28)"
       id="g150"><path
         id="path152"
         style="fill:none;stroke:#4289ba;stroke-width:1;stroke-linecap:butt;stroke-linejoin:miter;stroke-miterlimit:10;stroke-dasharray:none;stroke-opacity:1"
         d="M 0,0 H -29.36 V 29.36 H 0 Z" /></g><g
       transform="translate(1847.2021,940.946)"
       id="g154"><path
         id="path156"
         style="fill:none;stroke:#4289ba;stroke-width:1;stroke-linecap:butt;stroke-linejoin:miter;stroke-miterlimit:10;stroke-dasharray:none;stroke-opacity:1"
         d="m 0,0 h -30.9 l -15.69,-48.02 c -0.38,-1.16 -1.39,-1.74 -2.4,-1.74 -1.01,0 -2.02,0.58 -2.4,1.74 L -67.08,0 h -30.9 l 33.54,-102.64 -33.75,-103.24 h 30.92 l 15.88,48.61 c 0.38,1.16 1.39,1.74 2.4,1.74 1.01,0 2.02,-0.58 2.4,-1.74 l 15.88,-48.61 H 0.21 l -33.75,103.24 z m -13.88,-10.07 -29.22,-89.44 -1.02,-3.13 1.02,-3.12 29.43,-90.05 h -9.74 l -13.62,41.67 c -1.7,5.19 -6.5,8.68 -11.96,8.68 -5.46,0 -10.27,-3.5 -11.96,-8.68 l -13.62,-41.67 h -9.74 l 29.43,90.05 1.02,3.12 -1.02,3.13 -29.22,89.44 9.73,-0.01 13.42,-41.05 c 1.69,-5.2 6.5,-8.69 11.96,-8.69 5.46,0 10.26,3.49 11.96,8.67 l 13.43,41.07 9.72,0.01" /></g><g
       transform="translate(1890.8191,855.2069)"
       id="g158"><path
         id="path160"
         style="fill:none;stroke:#4289ba;stroke-width:1;stroke-linecap:butt;stroke-linejoin:miter;stroke-miterlimit:10;stroke-dasharray:none;stroke-opacity:1"
         d="m 0,0 c 0,-6.4 5.06,-12.58 12.58,-12.58 12.01,0 15.56,12.56 15.56,12.56 l 25.44,75.56 9.15,0.01 -62.76,-186.37 h -9.15 l 24.65,72.17 c 2.84,8.25 -3.61,16.48 -11.96,16.48 H -9.17 l 0.01,97.73 h 9.15 z M 43.91,85.71 14.85,-1.22 c -0.32,-0.98 -1.24,-1.64 -2.27,-1.64 -1.33,0 -2.4,1.07 -2.4,2.4 l -0.02,86.2 h -29.5 L -19.35,-32.35 H 0 c 2.12,0 3.62,-2.08 2.94,-4.09 L -25.52,-120.95 10.15,-121 79.07,85.74 Z" /></g><g
       transform="translate(1587.299,1014.623)"
       id="g162"><path
         id="path164"
         style="fill:none;stroke:#4289ba;stroke-width:1;stroke-linecap:butt;stroke-linejoin:miter;stroke-miterlimit:10;stroke-dasharray:none;stroke-opacity:1"
         d="M 0,0 V 151.23 H 9.11 V -33.94 h -67.86 v 77.89 h 9.11 V 0 c 0,-13.69 11.14,-24.82 24.82,-24.82 C -11.13,-24.82 0,-13.69 0,0 Z M -10.13,161.36 V 0 c 0,-8.11 -6.57,-14.69 -14.69,-14.69 -8.11,0 -14.69,6.58 -14.69,14.69 v 54.05 h -29.37 v -98.12 h 88.12 v 205.43 z" /></g><g
       transform="translate(2066.658,753.466)"
       id="g166"><path
         id="path168"
         style="fill:none;stroke:#4289ba;stroke-width:1;stroke-linecap:butt;stroke-linejoin:miter;stroke-miterlimit:10;stroke-dasharray:none;stroke-opacity:1"
         d="m 0,0 v -9.12 l -70.62,0.06 50.98,152.27 c 4.12,12.3 -5.03,25.01 -18,25.01 H -67.9 v 9.12 L 1.81,177.3 -48.51,25.2 C -52.61,12.79 -43.37,0 -30.3,0 Z M -39.08,22.54 16.3,187.47 h -94.33 v -29.38 h 40.38 c 6.39,0 10.9,-6.27 8.87,-12.33 L -84.2,-19.2 10.13,-19.25 v 29.38 h -40.49 c -6.42,0 -10.9,6.37 -8.72,12.41 z" /></g></g></svg>