<?xml version="1.0" encoding="UTF-8"?>
<svg id="Layer_1" xmlns="http://www.w3.org/2000/svg" version="1.1" viewBox="0 0 1440 265.1">
  <!-- Generator: Adobe Illustrator 29.5.0, SVG Export Plug-In . SVG Version: 2.1.0 Build 137)  -->
  <defs>
    <style>
      .st0 {
        fill: #fff;
      }
    </style>
  </defs>
  <path class="st0" d="M469.6,29.7h-88.2v205.8h29.4v-85.8c0-1.3,1.1-2.4,2.4-2.4h0c1,0,1.9.7,2.3,1.6l28.9,86.5h30.9l-26.5-79.6c-1.1-3.4.7-7.1,4.1-8.2.7-.2,1.4-.3,2.1-.3h14.7V29.7ZM440.2,73.8v29.4c0,8.1-6.6,14.7-14.7,14.7-8.1,0-14.7-6.6-14.7-14.7v-29.4c0-8.1,6.6-14.7,14.7-14.7,8.1,0,14.7,6.6,14.7,14.7h0Z"/>
  <path class="st0" d="M352,29.7h-88.2v205.8h29.4v-85.8c0-1.3,1.1-2.4,2.4-2.4h0c1,0,1.9.7,2.3,1.6l28.9,86.5h30.9l-26.5-79.6c-1.1-3.4.7-7.1,4.1-8.2.7-.2,1.4-.3,2.1-.3h14.7V29.7ZM322.6,73.8v29.4c-.2,8.1-7,14.5-15.1,14.3-7.8-.2-14.1-6.5-14.3-14.3v-29.4c.2-8.1,7-14.5,15.1-14.3,7.8.2,14.1,6.5,14.3,14.3Z"/>
  <path class="st0" d="M528.4,73.8c0-8.1,6.6-14.7,14.7-14.7h44.1v-29.4h-88.1v205.8h88.1v-29.4h-44c-8.1,0-14.7-6.6-14.7-14.7v-29.4c0-8.1,6.6-14.7,14.7-14.7h44.1v-29.4h-44.1c-8.1,0-14.7-6.6-14.7-14.7v-29.4Z"/>
  <path class="st0" d="M1116.4,29.6h-29.4v205.8h88.2v-29.4h-44c-8.1,0-14.7-6.6-14.7-14.7h0s0-161.7,0-161.7Z"/>
  <path class="st0" d="M1322.2,29.6v205.8h88.1V29.6h-88.1ZM1381,162v29.4c0,8.1-6.6,14.7-14.7,14.7-8.1,0-14.7-6.6-14.7-14.7v-29.4c0-8.1,6.6-14.7,14.7-14.7,8.1,0,14.7,6.6,14.7,14.7ZM1381,73.8v29.4c0,8.1-6.6,14.7-14.7,14.7-8.1,0-14.7-6.6-14.7-14.7v-29.4c0-8.1,6.6-14.7,14.7-14.7,8.1,0,14.7,6.6,14.7,14.7h0Z"/>
  <path class="st0" d="M1263.4,29.6v161.7c0,8.1-6.6,14.7-14.7,14.7-8.1,0-14.7-6.6-14.7-14.7V29.6h-29.4v205.8h88.2V29.6h-29.4Z"/>
  <path class="st0" d="M998.8,73.7c0-8.1,6.6-14.7,14.7-14.7h44.1v-29.4h-88.2v205.7h88.2v-29.4h-44.1c-8.1,0-14.7-6.6-14.7-14.7h0v-117.6Z"/>
  <path class="st0" d="M822.3,29.7h-88.2v205.8h88.2V29.7ZM792.9,191.3c0,8.1-6.6,14.7-14.7,14.7s-14.7-6.6-14.7-14.7v-117.6c0-8.1,6.6-14.7,14.7-14.7s14.7,6.6,14.7,14.7v117.6h0Z"/>
  <path class="st0" d="M704.8,29.7h-29.4v73.5c0,2.4-1.9,4.3-4.3,4.3-1.8,0-3.3-1-4-2.7l-.7-1.7-24.5-73.5h-25.4v205.8h29.4v-70.4c0-2.6,2.1-4.7,4.7-4.7,2,0,3.8,1.2,4.4,3.1l24.3,71.9,25.3.2V29.7Z"/>
  <path class="st0" d="M117.2,29.6H29v29.4h14.7c7.8,0,14.7,6.3,14.7,14.1v162.3h29.4V73.1c0-7.8,6.9-14.1,14.7-14.1h14.7v-29.4Z"/>
  <path class="st0" d="M175.6,73.8c0-8.1,6.6-14.7,14.7-14.7h44.1v-29.4h-88.2v205.8h88.1v-29.4h-44c-8.1,0-14.7-6.6-14.7-14.7v-29.4c0-8.1,6.6-14.7,14.7-14.7h44.1v-29.4h-44.1c-8.1,0-14.7-6.6-14.7-14.7v-29.4Z"/>
</svg>