<?xml version="1.0" encoding="UTF-8"?><svg id="Layer_1" xmlns="http://www.w3.org/2000/svg" viewBox="0 0 1088.97 224.42"><defs><style>.cls-1{fill:#f3e7b0;}</style></defs><path class="cls-1" d="M367.47,2.37l49.5,125V3.87c0-.3-1.27-.77-1-1.5h34v220h-34l-46.5-122.01.5,122.01h-34V2.37h31.5ZM367.97,4.37h-30v216h30v-125l49.18,124.35.79,1.26c.7.5,1.34-.61,1.53-.61h28.5V4.37h-30v127c-2.02.39-2.34-.95-3.21-2.29-2-3.07-4.03-9.69-5.54-13.46-11.89-29.65-23-59.84-34.27-89.73-2.64-7.01-5.38-14.17-6.98-21.52h0Z"/><path class="cls-1" d="M929.97,73.37h-32c-.15-12.35,1.03-31.9-13-37.5-14.79-5.9-28.27,3.76-30.04,18.95,2.59,37.43-3.3,79.17,0,116.08,1.9,21.26,30.03,27.98,39.23,7.15.53-1.19,2.81-7.56,2.81-8.19v-19.5h33v21.5c0,19.32-14.68,41.36-32.74,48.26-37.52,14.33-72.98-8.46-76.25-48.28-3.08-37.56,2.31-79.05-.06-117.03,2.38-36.8,26.44-57.88,63.53-54.44,23.89,2.22,45.52,26.68,45.52,50.48v22.52ZM928.97,71.37c1.52-29.05-8.3-62.85-40.75-68.75-43.92-7.98-64.29,21.37-66.29,61.21-1.47,29.31-1.43,66.75,0,96.08,1.52,31.39,12.92,60.09,48.55,62.45,32.27,2.13,52.62-16.62,57.22-47.76,1.01-6.86,2.68-17.29-.23-23.23h-28.5v14.5c0,2.63-2.16,9.95-3.24,12.76-9.16,23.75-42.91,14.8-42.8-9.72,2.42-36.23-3.07-76.31,0-112.08,1.52-17.59,17.81-31.27,34.75-21.67,4.86,2.76,11.29,12.28,11.29,17.71v18.5h30Z"/><path class="cls-1" d="M618.97,2.37v34c-.73.27-1.2-1-1.5-1h-38l-.5,187h-34V35.37h-40V2.37h114ZM616.97,34.37V5.87c0-.31.95-.62.98-1l-.98-1.01c-.69-1.12-1.14.51-1.5.51h-108.5v30h40v187c.73.27,1.2-1,1.5-1h28.5V34.37h40Z"/><path class="cls-1" d="M643.97,222.37L694.43,2.3l35.49.12,47.05,219.95h-34l-10.01-52.99-43.11.57-11.88,52.42h-34ZM648.47,220.37c9.49-.19,19.02.14,28.5,0l11.94-52.56,44.1.02,11.96,52.54h30L728.96,4.38l-34.38-.07-48.58,215.58c1.54,2.45,2.07.49,2.47.48h0Z"/><path class="cls-1" d="M208.76.66c38.99-4.01,61.82,19.24,64.25,57.16,2.02,31.62,2.02,78.46,0,110.08-2.5,39.06-28.81,61.95-68.28,55.2-31.15-5.32-41.24-31.78-42.8-60.2-1.68-30.62-1.78-72.51,0-103.08,1.72-29.61,14.41-55.83,46.84-59.16h0ZM218.64,1.75c-33.95-.14-52.51,21.3-54.71,54.08-2.46,36.7,1.96,76.09,0,113.08,2.38,34.74,23.61,56.47,59.41,53.33,58.77-5.15,47.78-71.13,47.58-112.32-.13-27.07,5.64-65.86-11.54-88.46-10.11-13.3-24.08-19.64-40.74-19.71Z"/><path class="cls-1" d="M360.97,12.37l60.89,160.38,5.11.62V12.37h12v200h-14.5l-61.95-157.73-3.55.73v157h-12V12.37h14ZM356.97,210.37V53.37l7.89.12,59.6,155.9,13.52.99-1.02-195.99h-7.99v159.99c-3.25-.3-7.77,1.39-9.23-2.27L360.08,14.96l-11.17-.12-.94,195.52h9Z"/><path class="cls-1" d="M918.97,176.87c-6.04,48.09-82.75,52.17-87.04-4.96-1.79-23.8-.07-48.37.12-72.03.23-29.91-7.98-74.55,28.38-86.55,34.28-11.32,61.72,14.54,58.54,49.04h-11.01c1.05-23.75-17.34-46.6-42.55-38.05-13.89,4.71-20.46,19.85-21.49,33.51-2.73,36.36,2.02,76.19.16,112.92,7.95,49.53,67.88,37.35,63.87-10.38h11c-.47,5.24.64,11.4,0,16.5h.02ZM908.96,162.36c3.47,26.04-21.42,51.89-47.32,38.83-14.22-7.17-18.77-22.34-19.72-37.28-1.88-29.48-1.96-73.66,0-103.08,1.15-17.18,8.99-37.28,28.54-39.47,24.69-2.76,38.67,16.02,38.94,39.07,1.06,1.51,8.22,1.63,8.61-1.58.57-4.74-2.53-17.78-4.56-22.47-14.4-33.32-63.55-31.47-76.36,1.62-2.34,6.05-3.76,14.34-4.17,20.83-1.97,30.86-1.93,76.2,0,107.08,1.23,19.68,8.22,38.03,28.49,44.51,31.44,10.05,59.82-16.19,56.56-48.06h-9.01Z"/><path class="cls-1" d="M607.97,12.37v13h-40v187h-12V25.37h-41l1-13h92ZM606.97,14.37h-90v9h40v187h9V23.37h41v-9Z"/><path class="cls-1" d="M720.84,12.5l44.13,199.86-12.9-.09-11.15-52.85-59.37-.11-11.59,53.05h-12.99l44.88-199.42,18.98-.45h.01ZM719.87,14.47h-16.81l-44.1,195.89h9.99l11.62-53.05,61.34.11,11.09,52.91,9.96.04-43.1-195.89h0Z"/><path class="cls-1" d="M209.75,11.65c30.39-3.65,49.93,14.48,52.21,44.23,2.98,38.98-1.05,83.35-1.44,122.54-9.88,49.82-83.2,48.11-87.54-10.56-2.26-30.6-2.02-78.27-.05-109.03,1.44-22.5,12.16-44.22,36.82-47.18h0ZM214.78,12.66c-47.95,2.57-39.37,56.09-39.76,89.26-.26,22.4-1.84,46.55-.03,68.94,4.16,51.43,73.1,54.95,83.52,9.55,1.2-5.25,2.19-13.1,2.51-18.49,1.69-29.03,1.63-69.03,0-98.08s-13.97-52.9-46.23-51.17h-.01Z"/><path class="cls-1" d="M684.47,147.37c-.28.04-1.13,1.5-1.49,1l23.18-106.31,1.44-1.56,8.36-1.13,23,109.01c-.36.49-1.28-1-1.49-1-15.35,0-38.75-1.95-53,0h0ZM684.97,146.37h53l-22.95-104.37-6.44-.69-23.61,105.06Z"/><path class="cls-1" d="M216.64,20.75c25.85-.51,34.2,22.34,35.38,44.07,1.58,29.22,1.98,71.08,0,100.09-.21,3.01-.86,7.57-1.49,10.51-8.69,40.39-63.43,38.67-66.6-6.51-2.73-38.95,1.08-82.66,1.34-121.75,3.99-14.71,15.6-26.1,31.38-26.41h0ZM213.75,22.66c-19.71,2.18-27.68,20.59-28.82,38.17-1.91,29.59-2.02,74.55,0,104.08,3.04,44.51,49.53,52.2,63.76,11.68.32-37.53,3.91-79.38,1.32-116.76-1.41-20.31-13.52-39.69-36.26-37.17Z"/><path class="cls-1" d="M726.97,138.37h-32l16.99-68,15.01,68ZM723.97,136.37l-12.5-60.01-14.5,60.01h27Z"/><path class="cls-1" d="M213.73,32.63c15.52-2.06,26.13,9.3,27.28,24.2-2.69,36.16,3.53,77.35-.16,112.91-1.74,16.79-14.34,26.42-31.1,21.34-11.41-3.45-15-14.27-15.82-25.18-2.67-35.72,1.97-74.84.16-110.92,1.04-11.35,7.8-20.79,19.64-22.36h0ZM212.71,34.61c-9.4,1.6-15.57,10.25-16.63,19.37-4.17,35.91,2.88,79.19-.1,115.88,2.71,26.8,38.3,28.03,42.9,1.93-2.59-37.38,3.76-80.15.07-116.9-1.38-13.77-12.35-22.63-26.25-20.27h0Z"/><path class="cls-1" d="M109.97,73.37h-32c-.15-12.35,1.03-31.9-13-37.5-14.79-5.9-28.27,3.76-30.04,18.95,2.59,37.43-3.3,79.17,0,116.08,1.9,21.26,30.03,27.98,39.23,7.15.53-1.19,2.81-7.56,2.81-8.19v-19.5h33v21.5c0,19.32-14.68,41.36-32.74,48.26C39.71,234.45,4.25,211.66.98,171.84c-3.08-37.56,2.31-79.05-.06-117.03C3.3,18.01,27.36-3.07,64.45.37c23.89,2.22,45.52,26.68,45.52,50.48v22.52ZM108.97,71.37c1.52-29.05-8.3-62.85-40.75-68.75C24.3-5.36,3.93,23.99,1.93,63.83c-1.47,29.31-1.43,66.75,0,96.08,1.52,31.39,12.92,60.09,48.55,62.45,32.27,2.13,52.62-16.62,57.22-47.76,1.01-6.86,2.68-17.29-.23-23.23h-28.5v14.5c0,2.63-2.16,9.95-3.24,12.76-9.16,23.75-42.91,14.8-42.8-9.72,2.42-36.23-3.07-76.31,0-112.08,1.52-17.59,17.81-31.27,34.75-21.67,4.86,2.76,11.29,12.28,11.29,17.71v18.5h30Z"/><path class="cls-1" d="M98.97,176.87c-6.04,48.09-82.75,52.17-87.04-4.96-1.79-23.8-.07-48.37.12-72.03.23-29.91-7.98-74.55,28.38-86.55,34.28-11.32,61.72,14.54,58.54,49.04h-11.01c1.05-23.75-17.34-46.6-42.55-38.05-13.89,4.71-20.46,19.85-21.49,33.51-2.73,36.36,2.02,76.19.16,112.92,7.95,49.53,67.88,37.35,63.87-10.38h11c-.47,5.24.64,11.4,0,16.5h.02ZM88.96,162.36c3.47,26.04-21.42,51.89-47.32,38.83-14.22-7.17-18.77-22.34-19.72-37.28-1.88-29.48-1.96-73.66,0-103.08,1.15-17.18,8.99-37.28,28.54-39.47,24.69-2.76,38.67,16.02,38.94,39.07,1.06,1.51,8.22,1.63,8.61-1.58.57-4.74-2.53-17.78-4.56-22.47C79.05,3.06,29.9,4.91,17.09,38c-2.34,6.05-3.76,14.34-4.17,20.83-1.97,30.86-1.93,76.2,0,107.08,1.23,19.68,8.22,38.03,28.49,44.51,31.44,10.05,59.82-16.19,56.56-48.06h-9.01Z"/><path class="cls-1" d="M1088.97,2.37v34c-.73.27-1.2-1-1.5-1h-38l-.5,187h-34V35.37h-40V2.37h114ZM1086.97,34.37V5.87c0-.31.95-.62.98-1l-.98-1.01c-.69-1.12-1.14.51-1.5.51h-108.5v30h40v187c.73.27,1.2-1,1.5-1h28.5V34.37h40Z"/><path class="cls-1" d="M1077.97,12.37v13h-40v187h-12V25.37h-41l1-13h92ZM1076.97,14.37h-90v9h40v187h9V23.37h41v-9Z"/></svg>