<svg id="Capa_1" data-name="Capa 1" xmlns="http://www.w3.org/2000/svg" viewBox="0 0 852.52 265.09"><defs><style>.cls-1{fill:none;stroke:#4289ba;stroke-miterlimit:10;}</style></defs><path class="cls-1" d="M577.77,48.9H573.2c-13.46,0-24.83,11.09-24.83,24.22v152.2h-9.12l0-152.2c0-13.13-11.37-24.22-24.83-24.22h-4.56V39.78h67.93Zm10.14-19.26h-88.2V59H514.4c7.78,0,14.7,6.3,14.7,14.08V235.46H558.5V73.12c0-7.78,6.92-14.08,14.7-14.08h14.71V29.64Z"/><path class="cls-1" d="M812.84,39.79V48.9H778.91a24.87,24.87,0,0,0-24.84,24.84v29.4A25,25,0,0,0,778.73,128l34.11,0v97.32H745V216.2h33.93a24.87,24.87,0,0,0,24.84-24.85V162a24.93,24.93,0,0,0-24.66-24.83l-34.11,0V39.78Zm-78-10.15V147.23l44.24,0A14.71,14.71,0,0,1,793.59,162v29.39a14.71,14.71,0,0,1-14.71,14.71l-44.07,0v29.37l88.17,0V117.87l-44.24,0a14.72,14.72,0,0,1-14.54-14.7V73.75a14.71,14.71,0,0,1,14.71-14.7L823,59V29.66l-88.17,0Z"/><path class="cls-1" d="M342.56,39.77v9.11H308.63a24.87,24.87,0,0,0-24.84,24.85v29.39A24.86,24.86,0,0,0,308.63,128h33.93v9.12H308.63A24.86,24.86,0,0,0,283.79,162v29.39a24.87,24.87,0,0,0,24.84,24.85h33.93v9.1H274.67V39.76Zm-78-10.15V235.44H352.7V206.07l-44.06,0a14.71,14.71,0,0,1-14.71-14.71V162a14.72,14.72,0,0,1,14.71-14.71H352.7V117.85H308.63a14.72,14.72,0,0,1-14.71-14.71V73.74A14.71,14.71,0,0,1,308.63,59L338,59H352.7V29.64l-88.17,0Z"/><path class="cls-1" d="M107.44,39.77v9.11H73.51A24.87,24.87,0,0,0,48.67,73.74v29.39A24.86,24.86,0,0,0,73.51,128h33.93v9.12H73.51A24.86,24.86,0,0,0,48.67,162v29.39a24.87,24.87,0,0,0,24.84,24.85h33.93v9.1H39.55V39.76Zm-78-10.15V235.44h88.17V206.07l-44.06,0A14.71,14.71,0,0,1,58.8,191.34V162a14.72,14.72,0,0,1,14.71-14.71h44.07V117.85H73.51A14.72,14.72,0,0,1,58.8,103.13V73.74A14.71,14.71,0,0,1,73.51,59l29.38,0h14.69V29.64l-88.17,0Z"/><path class="cls-1" d="M392.26,39.8h67.89V225.27h-9.1l0-151.52a24.83,24.83,0,0,0-49.66,0V225.27h-9.1ZM382.13,235.4h29.36l0-161.65a14.7,14.7,0,0,1,29.39,0l0,161.65h29.36V29.66H382.13V235.4Z"/><path class="cls-1" d="M686.2,73.73a24.83,24.83,0,0,0-49.66,0V191.07a24.83,24.83,0,0,0,49.66,0Zm-24.83,132a14.7,14.7,0,0,1-14.7-14.7V73.73a14.7,14.7,0,0,1,29.4,0V191.07A14.7,14.7,0,0,1,661.37,205.77Z"/><path class="cls-1" d="M617.29,29.64V235.16h88.16V29.64Zm78,195.39H627.42V39.77h67.89Z"/><path class="cls-1" d="M157.05,225.24V39.82h9.24v58.5a16.65,16.65,0,0,0,32.53,5l19.9-63.49H227L169,225.24h-11.9M147,235.3h29.35L240.67,29.77H211.33l-22.11,70.54a6.59,6.59,0,0,1-12.87-2V29.77H147V235.3Z"/></svg>