<?xml version="1.0" encoding="UTF-8"?><svg id="Layer_1" xmlns="http://www.w3.org/2000/svg" viewBox="0 0 883.38 429.99"><defs><style>.cls-1{fill:#f3e7b0;}</style></defs><path class="cls-1" d="M693.88,2.45l63.49,183L819.88,2.45h63.5v427h-63l-1.01-230-47.88,136.4-29.15.14-48.96-138.54v232h-62.5l-1.5-1.5V3.95l1.5-1.5h63ZM693.38,5.45h-61v421h58v-236l4.1.6,48.98,141.82c.5,1.1,1.3,1.38,2.41,1.59,6.27,1.15,15.4-.9,22.04.07l1.57-.66,49.08-141.71,3.8-1.7v236h59V5.45h-59.5l-64.01,185.01-3.56-2.44L693.38,5.45Z"/><path class="cls-1" d="M206.38,128.45h-63v-32.5c0-2.89-3.26-11.3-4.83-14.17-15.86-28.88-61.7-25.06-71.89,6.44-2.67,83.14-1.04,166.92-.83,250.27,8.39,33.35,55.94,40.17,72.71,9.62,1.57-2.86,4.83-11.27,4.83-14.17v-82.5h-44l-1-63h108v153.5c0,3.06-2.37,12.18-3.28,15.72-27.31,105.03-194.92,95.01-201.71-25.73-4.34-77.25,3.27-158.38-.06-236.04C4.48,12.49,104.1-27.94,168.84,21.49c17.75,13.56,37.54,43.58,37.54,66.46v40.5ZM145.38,126.45h57.5l1.09-2.04c-1.36-19.82,1.33-36.87-4.88-56.17C167.65-29.47,13.51-13.3,4.39,89.96l-.06,247.04c5.67,80.12,100.09,117.12,162.97,69.87,15.83-11.9,36.08-41.68,36.08-61.92v-154.5h-102v58h44v89.5c0,2.33-4.07,10.99-5.58,13.42-20.73,33.35-75.24,20.02-77.46-19.37V96.92c2.94-34.53,44.51-49.26,70.06-26.98,4.74,4.14,12.99,15.8,12.99,22.01v34.5h-.01Z"/><path class="cls-1" d="M346.88,2.45l64.49,161L473.88,2.45h64l1.07,2.03-96.57,250.47v174.5h-61.5l-1.5-1.5v-173c-30.32-79.26-63.21-157.7-92.75-237.25-1.3-3.5-4.34-10.04-4.85-13.18-.21-1.28.28-1.28,1.1-2.07h64ZM345.88,5.45h-60.5l97,250.5v170.5h56.5c3.22-3.24.57-8.27.45-12.45-1.53-52.5,1.04-105.29.29-157.81L535.38,5.45h-61l-61.9,161.56-2.59,1.45L345.88,5.45Z"/><path class="cls-1" d="M680.38,23.45l74.46,216.07,5.44-.17,73.1-215.9h30v385h-23V101.45c-3.13.46-7.97-1.44-9.84,1.66l-72.15,208.66-2.51.69-73.39-210.42-10.11-.59v307h-22V23.45h30ZM860.38,25.45h-23.5l-76.13,216.86-8.37-.35-75.49-216.51h-23.5v381h15.5l1.5-1.5V99.45h14l72.99,208,71.01-208h15v307h17V25.45h-.01Z"/><path class="cls-1" d="M185.38,108.45h-20.5l-1.5-1.5v-19c0-2.77-5.12-14.16-6.83-17.17-25.13-44.33-98.91-35.7-110.7,14.63-2.44,86-2.44,173.06,0,259.07,12.15,49.95,84.97,59.22,110.34,15.27,2.2-3.81,7.19-14.84,7.19-18.81v-110.5h-44v-21h66v132.5c0,15.54-14.84,38.64-26.53,48.47-50.07,42.12-132.82,11.85-136.52-55.42V92.91C27.86,23.77,116.15-3.16,163.91,44.42c8.87,8.84,21.47,30.97,21.47,43.53v20.5ZM182.38,105.45c5.95-58.08-52.18-95.74-105.51-78.01-27.2,9.04-49.02,34.47-51.52,63.48v246.09c4.39,59.84,74.59,88.61,123.57,57.48,17.68-11.24,34.47-35.97,34.47-57.53v-124l-1.5-1.5h-59.5v17h44v109.5c0,15.42-14.24,35.15-27.08,42.92-39.99,24.2-94.17,1.38-97.96-46.88,3.71-77.39-4.81-159.21,0-236.08,3.22-51.59,61.54-75.85,101.96-45.87,10.17,7.54,23.09,25.91,23.09,38.91v14.5h16,0Z"/><path class="cls-1" d="M334.38,23.45l72.46,185.07,9.43-.19L486.38,23.45h23l-88,229.5v155.5h-21v-155.5L311.38,23.45h23ZM505.38,25.45h-15.5l-72.46,185.54c-3.44.44-11.9,1.74-13.95-1.13L330.88,25.45h-15.5l86.52,224.98c2.33,4.92.42,9.1.43,13.48.09,46.68.03,93.36.04,140.04l1.64,2.36,14.92-.8.67-154.33L504.89,29.46s.49-4.01.49-4.01Z"/></svg>