<svg id="Capa_1" data-name="Capa 1" xmlns="http://www.w3.org/2000/svg" viewBox="0 0 264.14 265.09"><defs><style>.cls-1{fill:none;stroke:#4289ba;stroke-miterlimit:10;}</style></defs><path class="cls-1" d="M102.46,59.09h14.69V29.72H29V59.08H43.7c7.77,0,14.69,6.3,14.69,14.08V191.93c0,7.78-6.91,14.08-14.69,14.08H29v29.36h88.13V206H102.47c-7.77,0-14.68-6.3-14.68-14.08l0-118.76C87.77,65.39,94.68,59.09,102.46,59.09Zm0,157H107v9.12H39.15v-9.12h4.56c13.46,0,24.82-11.08,24.82-24.2l0-118.76c0-13.12-11.36-24.2-24.8-24.2H39.15V39.84H107V49h-4.57C89,49,77.64,60.05,77.64,73.17l0,118.76C77.66,205.05,89,216.13,102.47,216.13Z"/><path class="cls-1" d="M190.58,59.11h44.06V29.73H146.52V235.16h88.12V132.45H205.27v58.64a14.69,14.69,0,1,1-29.38,0V73.8A14.69,14.69,0,0,1,190.58,59.11Zm0,156.8a24.85,24.85,0,0,0,24.82-24.82V142.57h9.11V225H156.65V39.86h67.86V49H190.58A24.86,24.86,0,0,0,165.76,73.8V191.09A24.85,24.85,0,0,0,190.58,215.91Z"/></svg>