<svg viewBox="0 0 1440 265.09" xmlns="http://www.w3.org/2000/svg"><g fill="#f4ef96"><path d="m469.6 29.68h-88.17v205.8h29.36v-85.8a2.39 2.39 0 0 1 2.39-2.39 2.39 2.39 0 0 1 2.26 1.63l28.92 86.53h30.9l-26.53-79.65a6.5 6.5 0 0 1 6.17-8.55h14.67zm-29.4 44.09v29.37a14.7 14.7 0 0 1 -29.4 0v-29.37a14.7 14.7 0 1 1 29.4 0z"/><path d="m352 29.68h-88.17v205.8h29.37v-85.8a2.39 2.39 0 0 1 2.39-2.39 2.4 2.4 0 0 1 2.27 1.63l28.92 86.53h30.89l-26.54-79.65a6.5 6.5 0 0 1 6.17-8.55h14.68zm-29.39 44.09v29.37a14.71 14.71 0 0 1 -29.41 0v-29.37a14.71 14.71 0 0 1 29.41 0z"/><path d="m528.38 73.75a14.71 14.71 0 0 1 14.71-14.7h44.06v-29.39h-88.15v205.8h88.15v-29.39h-44a14.71 14.71 0 0 1 -14.71-14.7v-29.37a14.72 14.72 0 0 1 14.71-14.71h44.06v-29.42h-44.06a14.72 14.72 0 0 1 -14.71-14.71z"/><path d="m1116.36 29.64h-29.36v205.8h88.16v-29.37h-44a14.7 14.7 0 0 1 -14.71-14.7z"/><path d="m1322.18 29.65v205.76h88.14v-205.76zm58.82 132.35v29.37a14.71 14.71 0 0 1 -14.71 14.7 14.7 14.7 0 0 1 -14.7-14.7v-29.37a14.7 14.7 0 0 1 14.7-14.7 14.71 14.71 0 0 1 14.71 14.7zm0-88.19v29.37a14.71 14.71 0 0 1 -14.71 14.7 14.7 14.7 0 0 1 -14.7-14.7v-29.42a14.7 14.7 0 0 1 14.7-14.7 14.71 14.71 0 0 1 14.71 14.69z"/><path d="m1263.37 29.65v161.68a14.71 14.71 0 0 1 -14.71 14.7 14.7 14.7 0 0 1 -14.7-14.7v-161.68h-29.37v205.78h88.17v-205.78z"/><path d="m998.76 73.74a14.69 14.69 0 0 1 14.69-14.69h44.08v-29.37h-88.15v205.75h88.17v-29.38h-44.1a14.69 14.69 0 0 1 -14.69-14.69z"/><path d="m822.32 29.67h-88.16v205.78h88.18zm-29.38 161.68a14.7 14.7 0 0 1 -29.4 0v-117.57a14.7 14.7 0 1 1 29.4 0v117.56z"/><path d="m704.75 29.67h-29.36v73.47a4.32 4.32 0 0 1 -8.31 1.67l-.69-1.67-24.46-73.49h-25.36v205.79h29.43v-70.16-.28a4.72 4.72 0 0 1 9.15-1.64l24.34 71.93 25.29.2z"/><path d="m117.21 29.64h-88.21v29.36h14.71c7.78 0 14.69 6.3 14.69 14.08v162.32h29.41v-162.28c0-7.78 6.92-14.12 14.69-14.12h14.71z"/><path d="m175.65 73.75a14.71 14.71 0 0 1 14.71-14.7h44.06v-29.39h-88.15v205.8h88.15v-29.39h-44a14.71 14.71 0 0 1 -14.71-14.7v-29.37a14.72 14.72 0 0 1 14.71-14.71h44.06v-29.42h-44.06a14.72 14.72 0 0 1 -14.71-14.71z"/></g></svg>