<svg id="Capa_1" data-name="Capa 1" xmlns="http://www.w3.org/2000/svg" viewBox="0 0 1440 265.09"><defs><style>.cls-1{fill:#4289ba;}</style></defs><path class="cls-1" d="M469.6,29.68l-88.17,0v205.8h29.36l0-85.8a2.39,2.39,0,0,1,2.39-2.39h0a2.39,2.39,0,0,1,2.26,1.63l28.92,86.53,30.9,0L448.73,155.8a6.5,6.5,0,0,1,6.17-8.55h0l14.67,0ZM440.2,73.77v29.37h0a14.7,14.7,0,0,1-29.4,0h0V73.77h0a14.7,14.7,0,1,1,29.4,0Z"/><path class="cls-1" d="M352,29.68l-88.17,0v205.8H293.2v-85.8a2.39,2.39,0,0,1,2.39-2.39h0a2.4,2.4,0,0,1,2.27,1.63l28.92,86.53,30.89,0L331.13,155.8a6.5,6.5,0,0,1,6.17-8.55h0l14.68,0ZM322.61,73.77v29.37h0a14.71,14.71,0,0,1-29.41,0h0V73.77h0a14.71,14.71,0,0,1,29.41,0Z"/><path class="cls-1" d="M528.38,73.75a14.71,14.71,0,0,1,14.71-14.7l44.06,0V29.66l-88.15,0v205.8h88.15V206.07l-44,0a14.71,14.71,0,0,1-14.71-14.7V162a14.72,14.72,0,0,1,14.71-14.71l44.06,0V117.87l-44.06,0a14.72,14.72,0,0,1-14.71-14.71Z"/><path class="cls-1" d="M1116.36,29.64H1087v205.8h88.16V206.07l-44,0a14.7,14.7,0,0,1-14.71-14.7Z"/><path class="cls-1" d="M1322.18,29.65l0,205.76h88.14l0-205.76ZM1381,162v29.37h0a14.71,14.71,0,0,1-14.71,14.7h0a14.7,14.7,0,0,1-14.7-14.7h0V162h0a14.7,14.7,0,0,1,14.7-14.7h0a14.71,14.71,0,0,1,14.71,14.7Zm0-88.19v29.37h0a14.71,14.71,0,0,1-14.71,14.7h0a14.7,14.7,0,0,1-14.7-14.7h0V73.76h0a14.7,14.7,0,0,1,14.7-14.7h0A14.71,14.71,0,0,1,1381,73.75Z"/><path class="cls-1" d="M1263.37,29.65V191.33a14.71,14.71,0,0,1-14.71,14.7h0a14.7,14.7,0,0,1-14.7-14.7V29.65h-29.37V235.43h88.17V29.65Z"/><path class="cls-1" d="M998.76,73.74a14.69,14.69,0,0,1,14.69-14.69l44.08,0,0-29.37H969.38V235.43h88.17V206.05h-44.1a14.69,14.69,0,0,1-14.69-14.69Z"/><path class="cls-1" d="M822.32,29.67H734.16V235.45h88.18ZM792.94,191.35a14.7,14.7,0,0,1-29.4,0h0V73.78h0a14.7,14.7,0,1,1,29.4,0h0V191.34Z"/><path class="cls-1" d="M704.75,29.67H675.39l0,73.47a4.32,4.32,0,0,1-8.31,1.67l-.69-1.67L641.93,29.65H616.57V235.44H646l0-70.16V165a4.72,4.72,0,0,1,9.15-1.64l24.34,71.93,25.29.2Z"/><path class="cls-1" d="M117.21,29.64H29V59H43.71c7.78,0,14.69,6.3,14.69,14.08l0,162.32H87.81V73.12C87.81,65.34,94.73,59,102.5,59h14.71Z"/><path class="cls-1" d="M175.65,73.75a14.71,14.71,0,0,1,14.71-14.7l44.06,0V29.66l-88.15,0v205.8h88.15V206.07l-44,0a14.71,14.71,0,0,1-14.71-14.7V162a14.72,14.72,0,0,1,14.71-14.71l44.06,0V117.87l-44.06,0a14.72,14.72,0,0,1-14.71-14.71Z"/></svg>