<?xml version="1.0" encoding="UTF-8"?><svg id="Layer_1" xmlns="http://www.w3.org/2000/svg" viewBox="0 0 1302.75 208.17"><defs><style>.cls-1{fill:#f3e7b0;}</style></defs><path class="cls-1" d="M330.5,1.74l31.01,88.01L393.5,1.74h30.5v204h-30v-108l-25.46,64.07-15.06-1.05-22.48-63.02v106.5l-1.5,1.5h-29.5V1.74h30.5,0ZM331,3.74h-30v199.5l1.5,1.5h26.5v-112l3.09.6,24.37,67.47c3.58-.69,10.22,1.46,12.45-1.65l26.09-66.41v110.5l1.5,1.5h25l1.5-1.5V3.74h-28.5l-32.01,89.01-2.55-2.45L331,3.74Z"/><path class="cls-1" d="M259,1.74v29.5l-1.46,1.13c-5.68,1.4-11.66-.48-16.93-.53-9.44-.1-19.53,1.19-29.11.99-4.46-.09-9.62-2.05-14.5-1.09v57h44.5l1.5,1.5v27l-1.5,1.5h-44.5v57h62v30h-93V1.74h93ZM257,3.74h-89v201h89v-27h-60.5l-1.5-1.5v-58l1.5-1.5h44.5v-26h-46V30.74h62V3.74Z"/><path class="cls-1" d="M1039,88.74h38V1.74h29.5l1.5,1.5v202.5h-31v-87h-38v87h-31V1.74h29.5l1.5,1.5v85.5ZM1037,3.74h-27l-1,201h28v-86.5l1.5-1.5h39.5v88h29V3.74h-29c-.18,2.57.95,4.91,1.04,7.46.56,16-.83,32.11-1.08,48-.13,8.09,1.34,21.92.04,29.04-.21,1.12-.51,1.87-1.5,2.5h-38l-1.5-1.5V3.74h0Z"/><path class="cls-1" d="M871,145.74h29c1.64,12.1-1.12,28.68,15.59,30.91,20.26,2.7,25.98-17.42,20.46-33.46-4.76-13.83-39.65-36.71-51.07-49.93-14.37-16.62-18.74-37.86-13.13-59.18,11.39-43.28,75.57-45.91,91.92-4.6,3.72,9.41,3.86,21.07,3.83,31.22,0,1.17-.07,1.29-1.09,2.04h-28l-1.5-1.5v-16c0-6.96-9.94-13.95-16.51-14.51-16.88-1.44-21.22,14.52-19.23,28.25,2.97,20.59,50.34,45.43,61.62,69.38,20.25,43.04-16.29,95.18-63.55,75.55-12.21-5.07-28.32-23.06-28.32-36.68v-21.5h-.02ZM966,60.74v-19.5c0-.85-2.54-8.33-3.13-9.87-17.95-47.27-90.32-37.35-91.91,17.82-1.32,45.74,35,54.45,59.55,82.53,16.65,19.05,8.83,55.35-19.22,45.22-12.41-4.48-12.86-17.8-12.29-29.21h-27c-.2,16.11.24,28.85,10.97,41.53,22.6,26.68,63.74,21.17,78.73-10.32,4.96-10.43,5.52-24.16,4.18-35.6-4.52-38.58-63.96-56.55-66.77-87.23-1.67-18.29,11.03-33.4,29.57-24.58,10.79,5.13,10.56,18.96,10.3,29.2h27.02Z"/><path class="cls-1" d="M790.5,1.74c19.98,1.56,38.15,13.47,43.65,33.35,3.21,11.59,3.23,37.91.38,49.68s-12.55,24.28-23.61,29.58l28.08,91.39h-32l-25.41-85.09-13.59-.91v86h-30V3.24l1.5-1.5h51,0ZM795.5,3.74c-17.25-1.94-37.88,1.44-55.5,0v201h27v-86h16l26.5,86h26.5l-27.03-91.43c25.35-11.14,27.75-39.5,26.07-64.11-1.54-22.48-15.98-42.81-39.54-45.46Z"/><path class="cls-1" d="M699,1.74v30h-60v57h42.5l1.5,1.5v28.5h-44v57h60v30h-90V1.74h90ZM698,3.74h-88v201h88v-27h-59.5c-2.16-1.32-.48-3.14-.45-5.44.2-13.72.21-27.38,0-41.1-.07-4.48-1.95-10.26.45-14.46h43.5v-26h-44V30.74h60V3.74Z"/><path class="cls-1" d="M470,205.74V1.74h49.5c39.45,0,51.71,37.01,48.38,70.38-1.09,10.89-5.75,19.87-12.81,27.98,15.94,13.94,16.9,41.13,14.65,60.86-2.55,22.38-25.28,44.78-48.22,44.78h-51.5ZM471,203.74h54.5c1.69,0,9.32-2.68,11.48-3.52,29.99-11.67,34.89-41.04,31.01-69.97-1.62-12.08-5.58-22.97-15.97-30.01,15.49-12.71,15.46-34.51,14.02-53.04-1.42-18.14-12.14-33.33-29.05-39.95-1.68-.66-9.52-3.52-10.48-3.52h-55.5v200h-.01Z"/><path class="cls-1" d="M310,11.74l14.52.98c11.19,29.34,19.55,59.96,30.73,89.27,1.32,3.46,3.3,10.38,4.97,13.03.99,1.58,1.12,2.05,3.28,1.72l36.5-105h15v184l-10.01.5-.99-1V48.74c-2.32-.2-4.37-.21-5.23,2.27-9.97,26.75-18.21,54.19-28.02,80.98-1.76,4.81-4.32,13.41-6.54,17.46-.61,1.11-1.14,2.52-2.7,2.3l-36.41-102.41-4.1-.6v147l-9.54.76-1.46-1.26V11.74ZM320,194.74V46.74c2.82-.2,5.62-.33,6.78,2.72l35.73,99.27,35.49-100.25c.85-1.54,6.74-1.95,8-.25v146.5h7V13.74l-12.12.58-36.5,104.48-5.34-.11-35.52-103.97-12.52-.99-.04,104.47c1.12,9.05-1.76,73.94,1.15,76.43l7.89.11Z"/><path class="cls-1" d="M249,11.74c-.45,3.57,1.35,8.36-1.5,11h-60.5v76h46v10h-44.5l-1.5,1.5v75.5h59.5c.25,0,.8-1.18,1.51-.58,1.59,1.09,1.81,10.08-.51,11.58h-69c-.33,0-1.52-1.32-2.5-1V13.24l1.5-1.5h71.5ZM247,13.74h-66.5c-.31,0-1.42-1.37-2.5-1v182h69v-8h-61v-79h45v-8h-45V20.74h61v-7Z"/><path class="cls-1" d="M1029,11.74v87h57.5l1.5-1.5V11.74h10v183.5c-2.38,2.74-6.71,1.13-10.01,1.51l.05-23.55c-.61-17.86-.54-35.87-.94-53.85-.07-3.06,2.88-7.88-.6-10.61h-57.5v86.5l-1.66,1.34c-1.26.28-2.56.22-3.84.22-2.05,0-4.23.33-5.5-1.56V11.74h11ZM1027,194.74v-87h62v87h8.01c-.09-21.83.09-43.69.04-65.54-.06-24.32-.72-48.53-1.08-72.92-.21-14.17.24-28.39.05-42.55h-7.01v86.01h-60.5l-1.55-3.45,1.06-82.56-8.02.58-.99,180.43h8.01-.02Z"/><path class="cls-1" d="M947.01,51.73c.39-20.82-16.19-35.83-37.01-29.5-16.68,5.07-20.72,22.32-18.89,37.89,3.72,31.7,63.31,48.32,66.88,88.12,5.61,62.65-77.9,66.58-77.99,6.48h10.01c-.78,23.15,22.27,39.84,43.3,27.8,19.34-11.07,16.9-39.34,4.21-54.81-25.26-30.81-64.93-38-57.06-88.04,5.99-38.12,65.56-39.95,76.09-.99.73,2.71,3.19,13.61-.59,13.63l-8.95-.59h0ZM956,50.74c1.4-48.06-70.97-54.2-74.99-4.49-3.48,43.07,37.04,53.96,58.96,82.01,12.59,16.11,13.26,45.78-6.65,56.3-20.25,10.7-45.67-4.88-44.32-27.83h-7.01c-2.35,32.28,34.46,50.74,59.92,31.42,11.53-8.75,15-20.66,14.71-34.74-.99-47.47-66.69-57.48-67.68-99.14-1.07-45.3,59.13-46.78,59.05-3.52h8.01Z"/><path class="cls-1" d="M793.5,11.74c32.69,4.42,35.12,37,32.49,63.49-1.53,15.42-13.06,28.4-26.91,34.09l25.92,87.42-10.11-.59-27.39-85.41h-28.5v85h-10V11.74c13.85,1.35,31.07-1.82,44.5,0ZM795.5,13.74c-11.97-1.61-31.14,0-44,0-.3,0-.77-1.27-1.5-1v182h7v-84.5l1.5-1.5h30.5l26.89,85.41,7.11.59-26.01-85.54c.03-2.9,5.33-2.99,7.69-4.27,21.01-11.38,22.69-39.3,20.21-60.57-1.57-13.44-15.86-28.79-29.39-30.61h0Z"/><path class="cls-1" d="M689,11.74v11h-60v76h44v10h-42.5l-1.5,1.5v74l1.5,1.5h58.5l-.14,9.36-2.36,1.64-67.5-1V11.74h70ZM620,14.24v180.5h68l-.29-6.53-1.21-1.47h-58.5v-79h42.5c2.09,0,.87-5.55,1.02-7.05l-1.14-.81-40.73.69-1.66-1.34V20.74h60c-1.35-2.51-1.36-4.48,0-6.99l-68,.49h.01Z"/><path class="cls-1" d="M523.5,11.74c20.35,2.58,33.18,20,34.54,39.46,1.43,20.45-1.52,35.86-18.02,49.04,11.65,7.68,19.04,19.83,20.03,33.95.8,11.41.9,27.6-4.22,37.87-4.81,9.66-21.22,23.67-32.33,23.67h-43.5V11.74c13.65,1.25,30.22-1.69,43.5,0ZM481,14.24v179l1.5,1.5h35c17.77,0,36.15-14.6,40.06-31.94,4.63-20.54,1.29-51.12-19.57-61.57,7.77-9.64,16.89-16.56,18.05-29.95,1.71-19.81,1.35-40.4-17.12-51.95-16.49-10.3-37.48-3.25-55.87-6.18l-2.04,1.09h0Z"/><path class="cls-1" d="M757,100.74V20.74h33.5c8.51,0,20.32,9.64,23.9,17.1,4.28,8.91,3.8,36.4-.21,45.59-2.8,6.43-13.45,17.31-20.69,17.31h-36.5ZM759,99.74h31.5c11.28,0,23.26-13.59,24.5-24.5.8-7.04.77-29.49-1.52-35.48-2.16-5.66-13.69-17.02-19.98-17.02h-34.5v77Z"/><path class="cls-1" d="M489,96.74V20.74h31.5c8.65,0,21.74,9.92,25.24,17.76s3.33,31.04.44,38.93c-8.87,24.24-36.28,20.88-57.19,19.31h.01ZM490,95.74h31.5c9.17,0,20.22-10.38,23.28-18.72,3.43-9.38,3.55-31.34-1.57-39.99-2.92-4.94-13.92-14.29-19.71-14.29h-33.5v73Z"/><path class="cls-1" d="M489,186.74v-82h37.5c9.88,0,22.49,16.05,23.51,25.49,2.55,23.61-.21,56.51-31.51,56.51h-29.5ZM490,184.74h33.5c11.91,0,24.17-16.5,25.37-27.63,2.02-18.58-.61-51.37-26.37-51.37h-31l-1.5,1.5v77.5Z"/><path class="cls-1" d="M767,30.74h24.5c3.88,0,12.79,7.75,14.29,11.71,2.17,5.71,2.01,30.54-.29,36.28-2,4.99-10.66,13.01-15.99,13.01h-22c-3.23-4.01-.99-10.97-.87-15.66.04-1.58-.7-3.11-.66-4.78l1.03-40.55h-.01ZM768,89.74h23.5c3.35,0,11.11-7.96,12.54-11.46,2.97-7.3,3.32-31.67-1.04-38.04-2.28-3.34-10.67-8.5-14.5-8.5h-20.5v58Z"/><path class="cls-1" d="M499,87.74V30.74h23.5c.55,0,8.38,4.69,9.42,5.58,9.24,7.87,8.82,33.48,1.9,42.74-2.55,3.42-10.21,8.68-14.32,8.68h-20.5ZM501,86.74c10.6-2.38,21.39,1.94,30.03-6.47,8.11-7.89,8.51-33.86.86-41.93-1.54-1.62-9.58-6.61-11.39-6.61h-19c-2.27,1.39-.5,2.15-.5,2.5v52.5h0Z"/><path class="cls-1" d="M499,176.74v-62h24.5c4.63,0,13.46,7.29,15.2,11.8,2.25,5.85,2.14,31.36-.2,37.19-1.95,4.87-10.93,13.01-15.99,13.01h-23.51ZM501,115.74v57.5c0,.25-.81.59-.78,1l1.28,1.5h18c2.82,0,11.31-4.24,13.49-6.51,7.52-7.81,8.17-33.73,3.9-42.88-2.04-4.37-10.85-10.61-15.39-10.61h-20.5,0Z"/><path class="cls-1" d="M30.97,1.99l30.49,87.88L91.48,1.99h30.49v205.05h-30.25l-.49-110.45-22.99,65.5-14,.07-23.51-66.53v111.41H.72l-.72-.72V2.71l.72-.72h30.25ZM30.73,3.43H1.44v202.17h27.85v-113.33l1.97.29,23.52,68.1c.24.53.62.66,1.16.76,3.01.55,7.4-.43,10.58.03l.75-.32,23.57-68.05,1.82-.82v113.33h28.33V3.43h-28.57l-30.74,88.84-1.71-1.17L30.73,3.43Z"/><path class="cls-1" d="M24.49,12.07l35.76,103.76,2.61-.08L97.96,12.07h14.41v184.88h-11.04V49.53c-1.5.22-3.83-.69-4.73.8l-34.65,100.2-1.21.33L25.5,49.81l-4.85-.28v147.42h-10.56V12.07h14.41ZM110.93,13.03h-11.28l-36.56,104.14-4.02-.17L22.81,13.03h-11.28v182.96h7.44l.72-.72V48.57h6.72l35.05,99.88,34.1-99.88h7.2v147.42h8.16V13.03h0Z"/><path class="cls-1" d="M1176.53,2.42v203.9h-28.41l-.72-.72V3.13l.72-.72s28.41,0,28.41,0ZM1175.57,3.85h-26.74v201.03h26.74V3.85Z"/><path class="cls-1" d="M1166.98,12.45v183.84h-9.31l-.72-.72V12.45h10.03ZM1166.02,13.4h-7.64v181.93h6.92l.72-.72V13.4Z"/><path class="cls-1" d="M1245.78,119.1v86.35c-1.33-.13-2.58.39-3.89.48-6.21.39-18.44.7-24.38,0-.67-.08-1.18-.06-1.58-.71V2.44l44.8-.02c22.87,1.46,40.12,19.24,41.57,42.03.62,9.7.6,23.85-.02,33.54-1.11,17.26-11.68,32.1-27.89,38.25-9.34,3.55-18.77,2.88-28.6,2.86ZM1244.41,118.18c12.19-.94,22.52,1.13,34-4.81,10.85-5.61,19.32-16.17,21.82-28.24,1.81-8.72,1.43-33.89.69-43.43-1.61-20.77-20.51-37.86-41.11-38.36l-42.55.28-.41,200.91h27.56v-86.35h0Z"/><path class="cls-1" d="M1225.57,12.77c.4-.66.91-.63,1.58-.71,8.17-.96,31.52-.63,39.39,1.08,13.15,2.86,24.46,15.56,25.62,29.04.84,9.8.85,28.28-.05,38.06-1.2,13.06-11.82,24.87-24.45,27.91-10.2,2.45-20.46-.33-30.4.84-.67.08-1.18.06-1.58.71v85.43l-.69.69h-8.73l-.69-.69V12.77h0ZM1234.76,194.43l.23-86.35h28.94c1.44,0,6.93-1.86,8.49-2.54,10.17-4.43,17.89-15.12,18.83-26.18.82-9.6.71-26.15.03-35.84-.82-11.67-9.04-23.53-19.99-27.78-1.42-.55-6.64-2.29-7.82-2.29h-36.51v180.97h7.81Z"/><path class="cls-1" d="M1234.3,44.46c2.45-28.86,42.18-31.15,48.46-4.37,1.66,7.07,1.33,29.98.7,37.92-.84,10.61-11.13,22.26-22.29,22.26h-26.18l-.69-.69v-55.12h0ZM1235.68,99.35h24.11c12.03,0,21.85-10.72,22.75-22.26.68-8.69.66-23.47,0-32.18-1.47-19.64-23.74-30.07-39.06-16.98-3.02,2.58-7.8,9.8-7.8,13.78v57.64h0Z"/><path class="cls-1" d="M1244.41,43.54c2.29-16.99,27.52-16.17,28.95.44.97,11.22-.67,23.91-.12,35.27-.6,4.94-7.72,11.36-12.52,11.36h-15.62l-.69-.69v-46.39h0ZM1245.78,89.25c3,.28,5.94.56,8.97.48,7.86-.2,16.6-2.36,17.66-11.73.9-7.96.63-24.89.02-33.09-.85-11.32-14.16-17.18-22.75-9.39-1.09.99-3.91,5.38-3.91,6.66v47.08h0Z"/></svg>