<svg id="Capa_1" data-name="Capa 1" xmlns="http://www.w3.org/2000/svg" viewBox="0 0 1322.3 265.09"><defs><style>.cls-1{fill:none;stroke:#f1ec97;stroke-miterlimit:10;}</style></defs><path class="cls-1" d="M342.17,39.8v9.11H308.23a24.88,24.88,0,0,0-24.84,24.85v29.39A24.87,24.87,0,0,0,308.23,128l33.94,0v9.11H308.23A24.87,24.87,0,0,0,283.39,162v29.39a24.88,24.88,0,0,0,24.84,24.85h33.93v9.11H274.27V39.79Zm-78-10.15V235.47H352.3V206.1l-44.06,0a14.7,14.7,0,0,1-14.7-14.71V162a14.71,14.71,0,0,1,14.7-14.71H352.3V117.89l-44.07,0a14.71,14.71,0,0,1-14.7-14.71V73.77a14.7,14.7,0,0,1,14.7-14.71l29.38,0H352.3V29.67l-88.16,0Z"/><path class="cls-1" d="M1282.66,225.29h-9.08V162a24.84,24.84,0,1,0-49.68,0v63.34h-9.12V39.78h67.91ZM1248.74,128a24.87,24.87,0,0,0,24.84-24.84V73.75a24.84,24.84,0,1,0-49.68,0v29.39A24.86,24.86,0,0,0,1248.74,128m44.1-98.33h-88.18l0,205.78H1234V162a14.7,14.7,0,0,1,29.4,0v73.48h29.35l0-205.78Zm-44.1,88.19a14.7,14.7,0,0,1-14.7-14.7V73.75a14.7,14.7,0,0,1,29.4,0v29.39a14.7,14.7,0,0,1-14.7,14.7Z"/><path class="cls-1" d="M812.52,39.82l0,97.32h-6.93a14.22,14.22,0,0,0-11.74,5.8c-3.05,4.23-3.65,10.1-1.66,16.08l22.1,66.29h-9.53L778.13,145.7a12.52,12.52,0,0,0-24.4,4l0,75.68h-9.1V39.79Zm-58.8,34.51v28.29h0v.54a24.84,24.84,0,1,0,49.67,0V73.78a24.84,24.84,0,1,0-49.67,0v.55h0M734.47,29.66V235.47h29.37l0-85.81a2.38,2.38,0,0,1,4.65-.75l28.93,86.53,30.89,0-26.54-79.64c-1.41-4.21-.66-8.55,3.78-8.55l17.06,0,0-117.57-88.18,0Zm44.09,88.21a14.71,14.71,0,0,1-14.71-14.7h0V73.79h0a14.71,14.71,0,1,1,29.41,0h0v29.37h0a14.7,14.7,0,0,1-14.7,14.7Z"/><path class="cls-1" d="M930.08,39.81v9.1h-4.55l-29.38,0a24.86,24.86,0,0,0-24.84,24.84v29.39A24.86,24.86,0,0,0,896.15,128l33.93,0v9.11H896.15A24.86,24.86,0,0,0,871.31,162v29.4a24.87,24.87,0,0,0,24.84,24.84h33.93v9.11H862.19V39.79Zm-78-10.15V235.47h88.16V206.1l-44.06,0a14.71,14.71,0,0,1-14.71-14.7V162a14.72,14.72,0,0,1,14.71-14.71h44.07V117.89l-44.07,0a14.72,14.72,0,0,1-14.71-14.71V73.77a14.72,14.72,0,0,1,14.71-14.71l29.38,0h14.69V29.67Z"/><path class="cls-1" d="M694.88,225.32H627l0-185.51h67.91ZM661,128a24.86,24.86,0,0,0,24.83-24.84V73.78a24.84,24.84,0,1,0-49.67,0v29.38A24.82,24.82,0,0,0,661,128m0,88.2a24.86,24.86,0,0,0,24.83-24.84V162a24.84,24.84,0,1,0-49.67,0v29.38A24.82,24.82,0,0,0,661,216.2M705.05,29.67H616.87V235.45H705l0-205.78ZM661,117.87a14.71,14.71,0,0,1-14.71-14.7h0V73.79h0a14.71,14.71,0,1,1,29.41,0h0v29.37h0a14.7,14.7,0,0,1-14.7,14.7Zm0,88.2a14.71,14.71,0,0,1-14.71-14.7h0V162h0a14.71,14.71,0,1,1,29.41,0h0v29.37h0a14.7,14.7,0,0,1-14.7,14.7Z"/><path class="cls-1" d="M1047.62,39.81v9.11h-33.93a24.86,24.86,0,0,0-24.84,24.84v29.39A25,25,0,0,0,1013.51,128l34.11,0v97.32l-67.89,0v-9.1l33.93,0a24.86,24.86,0,0,0,24.84-24.84V162a25,25,0,0,0-24.66-24.84l-34.11,0V39.79Zm-78-10.15V147.24l44.24,0a14.7,14.7,0,0,1,14.54,14.7v29.39a14.72,14.72,0,0,1-14.71,14.71l-44.07,0v29.37h88.17V117.89l-44.24,0A14.7,14.7,0,0,1,999,103.16V73.77a14.72,14.72,0,0,1,14.71-14.71h44.07V29.68l-88.17,0Z"/><path class="cls-1" d="M381.74,29.65V235.47h29.37V73.71A14.68,14.68,0,0,1,425.81,59l29.39,0c7.78,0,14.7,6.3,14.7,14.08l0,162.34h29.39V73.14c0-7.78,6.92-14.08,14.69-14.08l29.41,0a14.68,14.68,0,0,1,14.68,14.68l0,161.74,29.36,0V29.65ZM577.35,225.33h-9.11l0-151.61A24.84,24.84,0,0,0,543.41,48.9l-29.41,0A25.19,25.19,0,0,0,494,59a23.49,23.49,0,0,0-4.83,14.11v152.2h-9.12l0-152.2A23.43,23.43,0,0,0,475.2,59a25.16,25.16,0,0,0-20-10.11l-29.4,0A24.84,24.84,0,0,0,401,73.71V225.34h-9.11V39.78H577.35Z"/><path class="cls-1" d="M29,29.65V235.47H58.39l0-161.76A14.68,14.68,0,0,1,73.09,59l29.39,0c7.78,0,14.7,6.3,14.7,14.08l0,162.34h29.39V73.14c0-7.78,6.91-14.08,14.69-14.08l29.4,0a14.68,14.68,0,0,1,14.68,14.68l0,161.74,29.36,0V29.65ZM224.63,225.33h-9.11l0-151.61A24.84,24.84,0,0,0,190.68,48.9l-29.4,0a25.19,25.19,0,0,0-20,10.11,23.49,23.49,0,0,0-4.83,14.11v152.2h-9.12l0-152.2A23.49,23.49,0,0,0,122.48,59a25.16,25.16,0,0,0-20-10.11l-29.4,0A24.84,24.84,0,0,0,48.28,73.71V225.34H39.16V39.78H224.63Z"/><path class="cls-1" d="M1160.59,59h14.7V29.65h-88.16V59h14.69c7.77,0,14.69,6.3,14.69,14.08l0,118.8c0,7.77-6.92,14.08-14.7,14.08h-14.7v29.37h88.16V206h-14.68c-7.78,0-14.69-6.31-14.69-14.08l0-118.8C1145.9,65.34,1152.82,59,1160.59,59Zm0,157.09h4.56v9.12h-67.9v-9.12h4.57c13.46,0,24.82-11.09,24.82-24.21V73.12c0-13.13-11.37-24.21-24.82-24.21h-4.56V39.78h67.9V48.9h-4.57c-13.45,0-24.82,11.08-24.82,24.21l0,118.8C1135.79,205,1147.15,216.13,1160.6,216.13Z"/></svg>