<svg id="Capa_1" data-name="Capa 1" xmlns="http://www.w3.org/2000/svg" viewBox="0 0 969.61 265.09"><defs><style>.cls-1{fill:none;stroke:#f1ec97;stroke-miterlimit:10;}</style></defs><path class="cls-1" d="M812.44,225.29h-9.08V161.94a24.84,24.84,0,0,0-49.68,0v63.35h-9.12V39.78h67.91ZM778.52,128a24.86,24.86,0,0,0,24.84-24.83V73.75a24.84,24.84,0,0,0-49.68,0v29.39A24.87,24.87,0,0,0,778.52,128m44.1-98.33H734.44l0,205.78h29.4V161.94a14.7,14.7,0,0,1,29.4,0v73.48h29.35l0-205.78Zm-44.1,88.2a14.7,14.7,0,0,1-14.7-14.7V73.75a14.7,14.7,0,1,1,29.4,0v29.39a14.7,14.7,0,0,1-14.7,14.7Z"/><path class="cls-1" d="M577.36,39.81l0,97.31-6.93,0a14.21,14.21,0,0,0-11.73,5.79c-3,4.24-3.66,10.1-1.66,16.09l22.09,66.29h-9.53L543,145.69a12.52,12.52,0,0,0-24.4,4v75.67h-9.11V39.78Zm-58.8,34.51v28.29h0v.53a24.84,24.84,0,1,0,49.68,0V73.76a24.84,24.84,0,0,0-49.68,0v.56h0M499.32,29.64V235.46h29.37l0-85.81a2.39,2.39,0,0,1,4.65-.76l28.92,86.54,30.9,0-26.55-79.64c-1.4-4.21-.65-8.55,3.78-8.55l17.06,0,0-117.56-88.18,0Zm44.08,88.22a14.71,14.71,0,0,1-14.7-14.71h0V73.77h0a14.7,14.7,0,0,1,29.4,0h0v29.37h0a14.71,14.71,0,0,1-14.7,14.71Z"/><path class="cls-1" d="M930.05,39.79V48.9H896.12a24.87,24.87,0,0,0-24.84,24.85v29.39A24.94,24.94,0,0,0,895.94,128l34.11,0v97.32H862.16V216.2h33.93a24.87,24.87,0,0,0,24.84-24.85V162a25,25,0,0,0-24.67-24.83l-34.1,0V39.78ZM852,29.64V147.23l44.24,0A14.72,14.72,0,0,1,910.8,162v29.39a14.71,14.71,0,0,1-14.71,14.71l-44.07,0v29.37l88.16,0V117.87l-44.23,0a14.7,14.7,0,0,1-14.54-14.7V73.76a14.71,14.71,0,0,1,14.71-14.71l44.06,0V29.66l-88.16,0Z"/><path class="cls-1" d="M107.06,39.81l0,97.31h-6.93a14.23,14.23,0,0,0-11.73,5.8c-3,4.24-3.66,10.1-1.66,16.09l22.09,66.29H99.29L72.67,145.69a12.52,12.52,0,0,0-24.4,3.95v75.68H39.15V39.78ZM48.27,74.32v28.29h0v.54a24.84,24.84,0,1,0,49.68,0V73.76a24.84,24.84,0,0,0-49.68,0v.55h0M29,29.64V235.46H58.39l0-85.81a2.39,2.39,0,0,1,4.65-.76L92,235.43l30.89,0L96.33,155.81c-1.4-4.21-.65-8.54,3.78-8.54l17.07,0,0-117.56L29,29.64ZM73.1,117.85a14.7,14.7,0,0,1-14.7-14.7h0V73.77h0a14.7,14.7,0,1,1,29.4,0h0v29.37h0a14.7,14.7,0,0,1-14.7,14.7Z"/><path class="cls-1" d="M224.63,39.79v9.1h-4.56l-29.37,0a24.87,24.87,0,0,0-24.84,24.84v29.4A24.87,24.87,0,0,0,190.69,128h33.94v9.11H190.7A24.87,24.87,0,0,0,165.86,162v29.39a24.86,24.86,0,0,0,24.83,24.84l33.94,0v9.1H156.74V39.78Zm-78-10.15V235.46h88.16V206.09l-44.06,0A14.72,14.72,0,0,1,176,191.36V162a14.71,14.71,0,0,1,14.71-14.71l44.06,0V117.87l-44.06,0A14.71,14.71,0,0,1,176,103.15V73.75a14.71,14.71,0,0,1,14.71-14.7l29.38,0h14.68V29.66l-88.16,0Z"/><path class="cls-1" d="M459.75,39.79v9.1h-4.56l-29.38,0A24.88,24.88,0,0,0,401,73.75v29.4A24.88,24.88,0,0,0,425.81,128h33.94v9.11H425.81A24.88,24.88,0,0,0,401,162v29.39a24.87,24.87,0,0,0,24.84,24.84l33.93,0v9.1H391.85V39.78Zm-78-10.15V235.46h88.16V206.09l-44.06,0a14.71,14.71,0,0,1-14.7-14.71V162a14.7,14.7,0,0,1,14.7-14.71l44.07,0V117.87l-44.07,0a14.7,14.7,0,0,1-14.7-14.7V73.75a14.7,14.7,0,0,1,14.7-14.7l29.39,0h14.68V29.66l-88.16,0Z"/><path class="cls-1" d="M342.17,39.79V48.9H308.24A24.87,24.87,0,0,0,283.4,73.76v29.39A24.94,24.94,0,0,0,308.06,128l34.11,0v97.32h-67.9V216.2h33.94a24.88,24.88,0,0,0,24.84-24.85V162a25,25,0,0,0-24.67-24.83l-34.11,0V39.78Zm-78-10.15V147.23l44.24,0A14.71,14.71,0,0,1,322.91,162v29.39a14.7,14.7,0,0,1-14.7,14.71l-44.07,0v29.37l88.16,0V117.87l-44.23,0a14.7,14.7,0,0,1-14.54-14.7V73.76a14.7,14.7,0,0,1,14.71-14.71l44.06,0V29.66l-88.16,0Z"/><path class="cls-1" d="M627,39.7h9.23V98.19a16.64,16.64,0,0,0,32.52,5L688.63,39.7h8.26l-58,185.41H627ZM616.9,235.17h29.35L710.58,29.64H681.24l-22.12,70.54a6.58,6.58,0,0,1-12.86-2V29.64H616.9V235.17Z"/></svg>