<?xml version="1.0" encoding="UTF-8"?><svg id="Layer_1" xmlns="http://www.w3.org/2000/svg" viewBox="0 0 959.33 430.27"><defs><style>.cls-1{fill:#f3e7b0;}</style></defs><path class="cls-1" d="M294.33,2.64l39.5,262.01L371.81,3.62c1.56-2.06,25.32-.8,29.59-.55l38.43,261.58L479.83,2.64h60l1.3,2.25-64.29,423.76-2,1c-16.08-1.47-35.4,1.9-51.07.04-2.83-.34-3.46-.97-4.21-3.79l-32.74-227.27-32.94,230.07-57.1-.02L232.33,2.64h62,0ZM292.33,5.64h-57l63.44,420.06,53.56.95,33.01-236.01,4.04,1.64,34.4,234.42,51.54-.07L538.33,5.64h-56.5l-40.07,265.02h-4.43L399.4,6.08l-26.07-.44-37.17,263.33-1.34,1.66-3.02-.96L292.33,5.64Z"/><path class="cls-1" d="M796.33,2.64l51.99,161L899.83,2.64h59.5v427h-59.5l-1.5-1.5v-225.5l-36.89,115.41-27.5.65-38.61-118.06v229h-59.5l-1.5-1.5V4.14l1.5-1.5s60.5,0,60.5,0ZM957.33,5.64h-56.5l-53.99,163L793.83,5.64h-56.5v421h56v-236h2.98l39.63,126.06,23.5-.66,38.42-123.38,3.47-1.02.51,235h55.5V5.64h0Z"/><path class="cls-1" d="M185.33,118.64h-60.5l-1.5-1.5v-32c0-1.36-2.88-7.56-3.81-9.19-13.62-23.84-53.34-16.89-56.18,11.2-1.22,12.12-1.45,44,.25,55.73.5,3.47,2.94,9.2,4.9,12.1,8.44,12.45,50.36,31.19,65.51,40.49,28.23,17.33,48.77,42.29,51.32,76.68,1.62,21.83,2.31,73.74-3.46,93.52-19.89,68.21-110.43,86.73-157.55,34.5-10.16-11.26-22.97-36.86-22.97-52.03v-39.5h62v35.5c0,2.84,4.47,11.04,6.47,13.53,16.23,20.24,50.9,11.37,53.52-14.54,1.52-15.11,1.74-54-.25-68.73-.99-7.37-6.55-16.1-12.27-20.73-19.48-15.8-51.2-26.63-72.39-42.61C-2.14,180.46-2,132.04,1.34,85.15,7.28,1.81,113.25-29.65,165.3,33.17c8.43,10.17,20.03,33.84,20.03,46.97v38.5ZM60.33,338.14c-.75-8.83.55-18.57,0-27.5H4.83c-1.43.88-1.38,1.99-1.55,3.45-2.09,17.85,1.52,47.6,9.19,63.91,34.17,72.56,146.17,63.68,167.35-14.37,5.89-21.69,5.68-85.25.22-107.2-13-52.25-66.5-66.44-106.62-92.38-10.86-8.92-12.52-21.66-13.14-34.86-.53-11.53-.32-33.82,1.13-44.96,2.12-16.24,19.85-26.81,35.3-25.46,14.58,1.27,29.62,15.32,29.62,30.37v27.5l57.01-.99c1.16-28.26-.17-54.6-17.59-77.92C123.2-19.28,28.29-4.4,7.61,64.42c-5.65,18.8-5.05,62.26-3.32,82.76,5.25,62.36,63.67,73.51,105.38,102.62,8.7,6.07,15.1,15.89,16.38,26.62,1.82,15.23,1.76,50.24.16,65.6-4.01,38.53-62.08,40.7-65.88-3.88h0Z"/><path class="cls-1" d="M661.33,2.64v427h-59.5l-1.5-1.5V4.14l1.5-1.5s59.5,0,59.5,0ZM659.33,5.64h-56v421h56V5.64Z"/><path class="cls-1" d="M277.33,23.64l45.15,303.35c.31,1.32,1.21,1.44,2.35,1.65,5.41,1.01,13.29-.79,19.04.07l39.04-249.93,9.29,1,37.08,248.43,21.6-.52L496.33,23.64h21l-57.46,384.04-22.53.95-47.11-326.88-6.32-.17-47.53,326.42-20.59.7L255.33,23.64h22,0ZM345.33,330.64h-23.5L273.83,25.64h-15.5l58.62,381.06c4.07-.87,15.13,1.73,17.22-1.72l11.16-74.34ZM514.33,25.64h-16l-45,305h-24l10.94,75.56c3.22.28,16.87,1.85,17.89-1.23l56.17-379.33h0Z"/><path class="cls-1" d="M782.33,23.64l62.47,197.02,3.02,1.05,66.01-198.07h25.5v385h-21V101.64l-8.9.1-61.61,190.9-62.59-190.9-9.9-.1v307h-20c.32-.98-1-2.17-1-2.5V23.64h28ZM780.33,25.64h-23v381h14.5l1.5-1.5V99.64c4.25.74,11.92-2.02,14.24,2.26l59.27,184.75,60.49-187.01h14v307h14.5l1.5-1.5V25.64h-21.5l-65.13,197.86h-6.73l-63.63-197.86h-.01Z"/><path class="cls-1" d="M165.33,97.64h-22v-16.5c0-17.55-23.9-37.44-40.61-39.39-60.78-7.09-63.15,48.89-60.43,93.43,4.28,70.19,101.98,57.57,120.19,124.81,4.87,17.98,4.34,64.51,2.89,84.19-6.12,83.04-129.23,88.95-142.76,6.68-1.07-6.5-2.74-16.48.22-22.22h19.5c.13,3.77-.26,7.6.13,11.37,6.95,66.93,97.24,63.52,101.91.17,1.39-18.81,1.96-64.89-4.86-81.22-18.38-44.04-100.22-44.6-115.46-102.54-4.5-17.11-4.56-66.63-.23-83.79C38.4,14.88,118.88,1.57,152.57,49.91c5.3,7.61,12.77,24.07,12.77,33.23v14.5h-.01ZM162.33,95.64v-16.5c0-4.69-6.52-19.29-9.19-23.81C125.84,9.17,53.17,12.64,30.47,61.28c-8.42,18.05-7.71,62.19-6.18,82.9,5.43,73.84,116.83,65.07,122.07,131.93,1.23,15.73,1.93,62.72-1.53,76.54-3.59,14.32-14.48,27.07-27.63,33.37-38.95,18.67-81.12-12.17-76.88-54.38h-16v17.5c0,11.23,12.68,32.31,20.99,40.01,39.7,36.83,111.67,14.87,117-40.02,1.89-19.47,1.59-57.29.04-77.03-3.75-47.84-54.62-63.41-89.34-84.66-19.09-11.69-30.98-23.4-32.74-47.26-1.42-19.34-2.41-59.66,7.24-75.84,28.33-47.51,103.79-24.76,98.8,31.3h16.02Z"/><path class="cls-1" d="M641.33,23.64v385h-19.5l-1.5-1.5V23.64h21ZM639.33,25.64h-16v381h14.5l1.5-1.5V25.64Z"/></svg>