<?xml version="1.0" encoding="UTF-8"?><svg id="PADEL" xmlns="http://www.w3.org/2000/svg" viewBox="0 0 767.25 298.46"><defs><style>.cls-1{fill:none;stroke:#f3e7b0;stroke-miterlimit:13.33;stroke-width:1.33px;}</style></defs><g transform="translate(383.625 149.23) scale(0.7875) translate(-383.625 -149.23)"><g id="P"><path id="path40" class="cls-1" d="M70.44,129.64c-10.83,0-19.6-8.77-19.6-19.6v-39.17c0-10.83,8.77-19.6,19.6-19.6s19.6,8.77,19.6,19.6v39.17c0,10.83-8.77,19.6-19.6,19.6ZM129.23,12.07H11.68l-.03,274.32h39.19v-97.95c0-10.83,8.77-19.6,19.6-19.6h58.79V12.07ZM70.44,143.15c18.25,0,33.11-14.85,33.11-33.11v-39.17c0-18.27-14.85-33.12-33.11-33.12s-33.11,14.85-33.11,33.12v39.17c0,18.25,14.85,33.11,33.11,33.11M115.67,155.32h-45.23c-18.25,0-33.11,14.85-33.11,33.12v84.44h-12.17l.03-247.31h90.53l-.05,129.75Z"/></g><g id="A"><path id="path36" class="cls-1" d="M219.07,129.64c-10.83,0-19.6-8.77-19.6-19.6v-39.19c0-10.83,8.77-19.61,19.6-19.61s19.6,8.79,19.6,19.61v39.19c0,10.83-8.77,19.6-19.6,19.6ZM277.87,12.04h-117.57l-.03,274.37h39.2v-97.97c0-10.81,8.77-19.6,19.6-19.6s19.6,8.79,19.6,19.6v97.97h39.2V12.04ZM219.07,143.15c18.25,0,33.12-14.85,33.12-33.11v-39.19c0-18.27-14.85-33.12-33.12-33.12s-33.12,14.85-33.12,33.12v39.19c0,18.25,14.87,33.11,33.12,33.11M264.3,272.91h-12.11v-84.47c0-18.25-14.85-33.11-33.12-33.11s-33.12,14.85-33.12,33.11v84.47h-12.16V25.56h90.56l-.05,247.35Z"/></g><g id="D"><path id="path148" class="cls-1" d="M359,247.26c-3.16,0-6.33-2.25-6.33-6.27V57.41c0-4.01,3.17-6.27,6.33-6.27,2.45,0,4.91,1.36,5.88,4.32l26.37,80.41c2.84,8.67,2.84,18.01,0,26.68l-26.37,80.4c-.97,2.95-3.43,4.31-5.88,4.31ZM313.48,12.04v274.4h39.19l39.13-.04,45.85-137.2L391.82,12.04h-78.35ZM359,260.78c8.65,0,16-5.35,18.71-13.63l26.39-80.39c3.77-11.48,3.77-23.61,0-35.09l-26.37-80.43c-2.72-8.27-10.07-13.61-18.72-13.61-11.12,0-19.84,8.68-19.84,19.77v183.59c0,11.09,8.72,19.79,19.84,19.79M339.16,25.53h13.49s29.44.04,29.44.04l41.32,123.63-41.35,123.71-29.4.03h-25.67V25.53h12.16"/></g><g id="E"><path id="path24" class="cls-1" d="M474.33,12.02v274.43h117.55v-39.16l-58.75-.03c-10.84,0-19.61-8.79-19.61-19.61v-39.19c0-10.84,8.77-19.61,19.61-19.61l58.75-.03v-39.16l-58.75-.03c-10.84,0-19.61-8.77-19.61-19.61v-39.19c0-10.83,8.77-19.6,19.61-19.6l39.17-.03h19.57V12.05l-117.55-.03ZM578.37,25.56v12.13h-6.08l-39.16.03c-18.27,0-33.13,14.87-33.13,33.12v39.19c0,18.27,14.87,33.13,33.12,33.13h45.25v12.16l-45.24.03c-18.27,0-33.13,14.85-33.13,33.12v39.19c0,18.27,14.87,33.12,33.12,33.12h45.24s.01,12.16.01,12.16h-90.53V25.54h90.53Z"/></g><g id="L"><path id="path48" class="cls-1" d="M638.56,286.45l117.55-.03v-39.16l-58.75-.03c-10.84,0-19.61-8.77-19.61-19.6V12.02h-39.19v274.43ZM652.06,272.93V25.54h12.16v202.09c0,18.25,14.87,33.12,33.13,33.12l39.16.03h6.08v12.13h-90.53Z"/></g></g></svg>
