<?xml version="1.0" encoding="UTF-8"?><svg xmlns="http://www.w3.org/2000/svg" viewBox="0 0 822.32 298.46"><defs><style>.cls-1{fill:none;stroke:#f3e7b0;stroke-miterlimit:13.33;stroke-width:1.33px;}</style></defs><g id="FOOD"><g id="O"><g id="A"><path id="path36" class="cls-1" d="M539.83,133.64c-10.83,0-19.6-8.77-19.6-19.6v-39.19c0-10.83,8.77-19.61,19.6-19.61s19.6,8.79,19.6,19.61v39.19c0,10.83-8.77,19.6-19.6,19.6ZM598.63,16.04h-117.57l-.03,274.37h39.2v-97.97c0-10.81,8.77-19.6,19.6-19.6s19.6,8.79,19.6,19.6v97.97h39.2V16.04ZM539.83,147.15c18.25,0,33.12-14.85,33.12-33.11v-39.19c0-18.27-14.85-33.12-33.12-33.12s-33.12,14.85-33.12,33.12v39.19c0,18.25,14.87,33.11,33.12,33.11M585.06,276.91h-12.11v-84.47c0-18.25-14.85-33.11-33.12-33.11s-33.12,14.85-33.12,33.11v84.47h-12.16V29.56h90.56l-.05,247.35Z"/></g><g id="g154"><path id="path156" class="cls-1" d="M769.18,15.98h-41.2l-20.92,64.03c-.51,1.55-1.85,2.32-3.2,2.32s-2.69-.77-3.2-2.32l-20.92-64.03h-41.2l44.72,136.85-45,137.65h41.23l21.17-64.81c.51-1.55,1.85-2.32,3.2-2.32s2.69.77,3.2,2.32l21.17,64.81h41.23l-45-137.65,44.72-136.85ZM750.67,29.41l-38.96,119.25-1.36,4.17,1.36,4.16,39.24,120.07h-12.99l-18.16-55.56c-2.27-6.92-8.67-11.57-15.95-11.57s-13.69,4.67-15.95,11.57l-18.16,55.56h-12.99l39.24-120.07,1.36-4.16-1.36-4.17-38.96-119.25h12.97s17.89,54.75,17.89,54.75c2.25,6.93,8.67,11.59,15.95,11.59s13.68-4.65,15.95-11.56l17.91-54.76h12.96"/></g></g></g><g id="PADEL"><g id="E"><path id="path24" class="cls-1" d="M164.59,16.02v274.43h117.55v-39.16l-58.75-.03c-10.84,0-19.61-8.79-19.61-19.61v-39.19c0-10.84,8.77-19.61,19.61-19.61l58.75-.03v-39.16l-58.75-.03c-10.84,0-19.61-8.77-19.61-19.61v-39.19c0-10.83,8.77-19.6,19.61-19.6l39.17-.03h19.57V16.04l-117.55-.03ZM268.63,29.55v12.13h-6.08l-39.16.03c-18.27,0-33.13,14.87-33.13,33.12v39.19c0,18.27,14.87,33.13,33.12,33.13h45.25v12.16l-45.24.03c-18.27,0-33.13,14.85-33.13,33.12v39.19c0,18.27,14.87,33.12,33.12,33.12h45.24s.01,12.16.01,12.16h-90.53V29.54h90.53Z"/></g><g id="g42"><path id="path44" class="cls-1" d="M65.11,133.68c-10.83,0-19.6-8.77-19.6-19.6h0v-39.16h0c0-10.83,8.77-19.6,19.6-19.6s19.6,8.77,19.6,19.59v39.17c0,10.83-8.77,19.6-19.6,19.6ZM6.37,16.11v274.32h39.13l.03-114.37c0-1.76,1.43-3.19,3.19-3.19,1.37,0,2.59.88,3.01,2.19l38.56,115.33,41.17.04-35.39-106.16c-1.87-5.6-.87-11.39,5.04-11.39l22.75-.03.03-156.71-117.52-.04ZM32.01,75.66v37.71h0v.72c0,18.25,14.85,33.11,33.11,33.11s33.11-14.85,33.11-33.12v-39.16c0-18.25-14.85-33.09-33.11-33.09s-33.11,14.84-33.11,33.09v.75M110.38,29.66l-.03,129.71h-9.24c-6.4.01-12.09,2.83-15.64,7.75-4.07,5.64-4.87,13.45-2.21,21.44l29.45,88.35h-12.71l-35.47-106.12c-2.27-6.83-8.64-11.41-15.83-11.41-9.2,0-16.69,7.49-16.69,16.69v100.87h-12.15V29.62l90.51.04Z"/></g><g id="L"><path id="path48" class="cls-1" d="M324.81,290.44l117.55-.03v-39.16l-58.75-.03c-10.84,0-19.61-8.77-19.61-19.6V16.02h-39.19v274.43ZM338.32,276.92V29.54h12.16v202.09c0,18.25,14.87,33.12,33.13,33.12l39.16.03h6.08v12.13h-90.53Z"/></g></g></svg>