<?xml version="1.0" encoding="UTF-8"?><svg id="PADEL" xmlns="http://www.w3.org/2000/svg" viewBox="0 0 632.06 298.46"><defs><style>.cls-1{fill:none;stroke:#f3e7b0;stroke-miterlimit:13.33;stroke-width:1.33px;}</style></defs><g id="g126"><path id="path128" class="cls-1" d="M74.09,256.77c18.25,0,33.09-14.84,33.09-33.09v-58.56h12.15v103.81H28.85V22.04h90.48v12.16h-45.24c-18.25,0-33.09,14.85-33.09,33.09v156.39c0,18.25,14.84,33.09,33.09,33.09ZM74.09,47.71h58.75V8.53H15.35v273.91h117.49v-130.83h-39.16v72.07c0,10.83-8.77,19.59-19.59,19.59s-19.59-8.76-19.59-19.59V67.29c0-10.81,8.77-19.59,19.59-19.59Z"/></g><g id="g158"><path id="path160" class="cls-1" d="M206.43,121.98c0,8.53,6.75,16.77,16.77,16.77,16.01,0,20.75-16.75,20.75-16.75l33.92-100.75h12.2s-83.68,248.48-83.68,248.48h-12.2l32.87-96.23c3.79-11-4.81-21.97-15.95-21.97h-16.91V21.23h12.21v100.75ZM264.98,7.7l-38.75,115.91c-.43,1.31-1.65,2.19-3.03,2.19-1.77,0-3.2-1.43-3.2-3.2l-.03-114.93h-39.33v157.45s25.79,0,25.79,0c2.83,0,4.83,2.77,3.92,5.45l-37.95,112.68,47.56.07L311.86,7.66l-46.88.04Z"/></g><g id="g62"><path id="path64" class="cls-1" d="M605.06,270.84h-12.15s-.03-202.16-.03-202.16c0-18.24-14.84-33.08-33.08-33.08l-39.21.03c-10.8,0-20.57,5.39-26.67,13.48-4.01,5.35-6.44,11.85-6.44,18.81v202.93h-12.16l-.03-202.93c0-6.96-2.43-13.47-6.44-18.81-6.08-8.09-15.85-13.48-26.65-13.48l-39.2-.03c-18.24,0-33.08,14.84-33.08,33.08v202.17h-12.16V23.44s247.29.01,247.29.01v247.39ZM344.25,9.94v274.43h39.16l.03-215.68c0-10.81,8.76-19.57,19.57-19.57l39.19.04c10.37,0,19.6,8.41,19.6,18.77l.03,216.45h39.19V67.92c0-10.36,9.21-18.77,19.59-18.77l39.21-.04c10.8,0,19.57,8.76,19.57,19.57l.04,215.65,39.15.03V9.94h-274.32Z"/></g></svg>