<?xml version="1.0" encoding="UTF-8"?><svg id="PADEL" xmlns="http://www.w3.org/2000/svg" viewBox="0 0 928.14 298.46"><defs><style>.cls-1{fill:none;stroke:#f3e7b0;stroke-miterlimit:13.33;stroke-width:1.33px;}</style></defs><g id="g50"><path id="path52" class="cls-1" d="M19.51,9.99v156.72l58.96.04c10.72.12,19.37,8.84,19.37,19.59v39.17c0,10.83-8.77,19.61-19.6,19.61H19.51v39.16l117.51.03V127.59l-58.96-.04c-10.72-.12-19.37-8.84-19.37-19.59v-39.17c0-10.83,8.77-19.61,19.6-19.61h58.73V10.02l-117.51-.03ZM123.51,23.52v12.13h-45.23c-18.25.01-33.11,14.87-33.11,33.13v39.17c0,18.04,14.68,32.89,32.87,33.09l45.47.03v129.72l-90.49-.03v-12.13h45.23c18.25-.01,33.11-14.87,33.11-33.13v-39.17c0-18.04-14.68-32.89-32.87-33.09l-45.47-.03V23.5l90.49.03Z"/></g><g id="g70"><path id="path72" class="cls-1" d="M587.86,258.63h6.08v12.16h-90.53v-12.16h6.09c17.95,0,33.09-14.79,33.09-32.28l-.03-158.4c0-17.49-15.15-32.28-33.08-32.28h-6.08v-12.16h90.53v12.16h-6.09c-17.95,0-33.09,14.79-33.09,32.28v158.4c.01,17.49,15.17,32.28,33.11,32.28ZM587.85,49.18h19.6V10h-117.55v39.16h19.57c10.37.01,19.59,8.41,19.59,18.79l.03,158.4c0,10.37-9.21,18.77-19.59,18.77h-19.6v39.17h117.55v-39.16h-19.57c-10.37-.01-19.6-8.41-19.6-18.79V67.95c-.01-10.37,9.2-18.77,19.57-18.77h0Z"/></g><g id="g66"><path id="path68" class="cls-1" d="M195.38,23.34h12.16s.03,202.35.03,202.35c0,18.27,14.85,33.12,33.12,33.12l39.24-.03c10.81,0,20.6-5.39,26.69-13.49,4.01-5.35,6.44-11.87,6.44-18.84V23.33h12.17l.03,203.12c0,6.97,2.43,13.49,6.45,18.84,6.08,8.11,15.87,13.49,26.68,13.49l39.23.03c18.27,0,33.12-14.85,33.12-33.11V23.33h12.17v247.65s-247.53,0-247.53,0V23.34ZM456.45,284.5V9.81h-39.2l-.03,215.88c0,10.83-8.77,19.6-19.6,19.6l-39.21-.04c-10.39,0-19.61-8.41-19.61-18.8l-.03-216.65h-39.23v216.65c0,10.39-9.24,18.8-19.61,18.8l-39.24.04c-10.83,0-19.6-8.77-19.6-19.6l-.04-215.85-39.19-.03v274.69h274.59Z"/></g><g id="g62"><path id="path64" class="cls-1" d="M901.2,270.84h-12.15s-.03-202.16-.03-202.16c0-18.24-14.84-33.08-33.08-33.08l-39.21.03c-10.8,0-20.57,5.39-26.67,13.48-4.01,5.35-6.44,11.85-6.44,18.81v202.93h-12.16l-.03-202.93c0-6.96-2.43-13.47-6.44-18.81-6.08-8.09-15.85-13.48-26.65-13.48l-39.2-.03c-18.24,0-33.08,14.84-33.08,33.08v202.17h-12.16V23.44s247.29.01,247.29.01v247.39ZM640.39,9.94v274.43h39.16l.03-215.68c0-10.81,8.76-19.57,19.57-19.57l39.19.04c10.37,0,19.6,8.41,19.6,18.77l.03,216.45h39.19V67.92c0-10.36,9.21-18.77,19.59-18.77l39.21-.04c10.8,0,19.57,8.76,19.57,19.57l.04,215.65,39.15.03V9.94h-274.32Z"/></g></svg>