<?xml version="1.0" encoding="UTF-8"?><svg id="PADEL" xmlns="http://www.w3.org/2000/svg" viewBox="0 0 604.42 298.46"><defs><style>.cls-1{fill:none;stroke:#f3e7b0;stroke-miterlimit:13.33;stroke-width:1.33px;}</style></defs><g id="g30"><path id="path32" class="cls-1" d="M16.02,9.02v274.43h117.55v-39.16l-58.75-.03c-10.84,0-19.61-8.79-19.61-19.61V67.83c0-10.83,8.77-19.6,19.61-19.6l39.17-.03h19.57V9.04l-117.55-.03ZM120.06,22.55v12.13h-6.08l-39.16.03c-18.27,0-33.13,14.87-33.13,33.12v156.81c0,18.27,14.87,33.12,33.12,33.12h45.24s.01,12.16.01,12.16H29.52V22.54h90.53Z"/></g><g id="g106"><path id="path108" class="cls-1" d="M529.83,244.25c-10.83,0-19.6-8.77-19.6-19.6v-39.19c0-10.83,8.77-19.61,19.6-19.61s19.6,8.79,19.6,19.61v39.19c0,10.83-8.77,19.6-19.6,19.6ZM529.83,126.65c-10.83,0-19.6-8.77-19.6-19.6v-39.19c0-10.83,8.77-19.6,19.6-19.6s19.6,8.77,19.6,19.6v39.19c0,10.83-8.77,19.6-19.6,19.6ZM588.63,9.05h-117.57l-.03,274.39h117.53l.07-274.39ZM529.83,257.76c18.25,0,33.12-14.85,33.12-33.12v-39.17c0-18.27-14.87-33.12-33.12-33.12-8.84,0-17.16,3.44-23.41,9.69-6.25,6.25-9.71,14.57-9.71,23.44v39.17c0,8.84,3.45,17.16,9.71,23.41,6.25,6.25,14.57,9.69,23.41,9.69M529.83,140.16c18.25,0,33.12-14.85,33.12-33.12v-39.17c0-18.27-14.87-33.12-33.12-33.12-8.84,0-17.16,3.44-23.41,9.71-6.25,6.25-9.71,14.56-9.71,23.43v39.17c0,8.84,3.45,17.16,9.71,23.41,6.25,6.25,14.57,9.69,23.41,9.69M575.06,269.92h-90.51V22.57h90.56l-.05,247.35Z"/></g><g id="g122"><path id="path124" class="cls-1" d="M438.14,10.06h-39.15l-.03,215.53c0,10.81-8.77,19.6-19.6,19.6s-19.59-8.79-19.59-19.6l-.03-215.53h-39.15v274.32h117.53V10.06ZM424.64,270.86h-90.52V23.57h12.13l.03,202.03c0,18.25,14.84,33.11,33.09,33.11s33.11-14.85,33.11-33.11l.03-202.03h12.13v247.29Z"/></g><g id="L"><path id="path48" class="cls-1" d="M168.38,284.43l117.55-.03v-39.16l-58.75-.03c-10.84,0-19.61-8.77-19.61-19.6V10.01h-39.19v274.43ZM181.89,270.91V23.53h12.16v202.09c0,18.25,14.87,33.12,33.13,33.12l39.16.03h6.08v12.13h-90.53Z"/></g></svg>